<svg width="17" height="18" viewBox="0 0 17 18" fill="none" xmlns="http://www.w3.org/2000/svg">
<g id="&#240;&#159;&#166;&#134; icon &#34;filters 2&#34;">
<g id="Group">
<path id="Vector" d="M6.33333 2.77344H1" stroke="#9D7A5A" stroke-width="1.853" stroke-linecap="round"/>
<path id="Vector_2" d="M9.89062 2.77344H15.224" stroke="#9D7A5A" stroke-width="1.853" stroke-linecap="round"/>
<path id="Vector_3" d="M11.6667 9H1" stroke="#9D7A5A" stroke-width="1.853" stroke-linecap="round"/>
<path id="Vector_4" d="M4.55469 15.2188H15.2214" stroke="#9D7A5A" stroke-width="1.853" stroke-linecap="round"/>
<path id="Vector_5" d="M4.55556 15.2231C4.55556 14.2412 3.75962 13.4453 2.77778 13.4453C1.79594 13.4453 1 14.2412 1 15.2231C1 16.205 1.79594 17.0009 2.77778 17.0009C3.75962 17.0009 4.55556 16.205 4.55556 15.2231Z" stroke="#9D7A5A" stroke-width="1.853" stroke-linecap="round"/>
<path id="Vector_6" d="M15.2196 9.00434C15.2196 8.02247 14.4237 7.22656 13.4418 7.22656C12.46 7.22656 11.6641 8.02247 11.6641 9.00434C11.6641 9.98621 12.46 10.7821 13.4418 10.7821C14.4237 10.7821 15.2196 9.98621 15.2196 9.00434Z" stroke="#9D7A5A" stroke-width="1.853" stroke-linecap="round"/>
<path id="Vector_7" d="M9.89149 2.77778C9.89149 1.79594 9.09558 1 8.11372 1C7.13185 1 6.33594 1.79594 6.33594 2.77778C6.33594 3.75962 7.13185 4.55556 8.11372 4.55556C9.09558 4.55556 9.89149 3.75962 9.89149 2.77778Z" stroke="#9D7A5A" stroke-width="1.853" stroke-linecap="round"/>
</g>
</g>
</svg>
