<svg width="22" height="22" viewBox="0 0 22 22" fill="none" xmlns="http://www.w3.org/2000/svg">
<path fill-rule="evenodd" clip-rule="evenodd" d="M9.79688 3.4375C8.21735 3.4375 6.875 4.79934 6.875 6.55769L6.875 14.1731C6.875 16.6324 8.75601 18.5625 11 18.5625C13.244 18.5625 15.125 16.6324 15.125 14.1731V6.55769H16.5V14.1731C16.5 17.3216 14.0718 19.9375 11 19.9375C7.92825 19.9375 5.5 17.3216 5.5 14.1731L5.5 6.55769C5.5 4.11018 7.38959 2.0625 9.79688 2.0625C12.2042 2.0625 14.0938 4.11018 14.0938 6.55769V14.1731C14.0938 15.9196 12.7428 17.399 11 17.399C9.25718 17.399 7.90625 15.9196 7.90625 14.1731V6.55769H9.28125V14.1731C9.28125 15.2304 10.0849 16.024 11 16.024C11.9151 16.024 12.7188 15.2304 12.7188 14.1731V6.55769C12.7188 4.79935 11.3764 3.4375 9.79688 3.4375Z" fill="#353535"/>
</svg>
