<svg xmlns="http://www.w3.org/2000/svg" width="18" height="18" viewBox="0 0 18 18" fill="none">
  <path fill-rule="evenodd" clip-rule="evenodd" d="M8.01563 2.8125C6.72329 2.8125 5.625 3.92674 5.625 5.36538L5.625 11.5962C5.625 13.6083 7.16401 15.1875 9 15.1875C10.836 15.1875 12.375 13.6083 12.375 11.5962V5.36538H13.5V11.5962C13.5 14.1722 11.5133 16.3125 9 16.3125C6.48675 16.3125 4.5 14.1722 4.5 11.5962L4.5 5.36538C4.5 3.36287 6.04603 1.6875 8.01563 1.6875C9.98522 1.6875 11.5313 3.36287 11.5313 5.36538V11.5962C11.5313 13.0251 10.4259 14.2356 9 14.2356C7.57406 14.2356 6.46875 13.0251 6.46875 11.5962V5.36538H7.59375V11.5962C7.59375 12.4613 8.25132 13.1106 9 13.1106C9.74868 13.1106 10.4063 12.4613 10.4063 11.5962V5.36538C10.4063 3.92674 9.30796 2.8125 8.01563 2.8125Z" fill="#808080"/>
</svg>