<svg width="19" height="19" viewBox="0 0 19 19" fill="none" xmlns="http://www.w3.org/2000/svg">
<g id="&#240;&#159;&#166;&#134; icon &#34;menu book&#34;">
<path id="Vector" d="M16.74 3.76583C15.9038 3.50216 14.9847 3.38916 14.1033 3.38916C12.6343 3.38916 11.0523 3.69049 9.95998 4.51916C8.86765 3.69049 7.28565 3.38916 5.81666 3.38916C4.34766 3.38916 2.76567 3.69049 1.67334 4.51916V15.5555C1.67334 15.7438 1.86167 15.9321 2.05001 15.9321C2.12534 15.9321 2.163 15.8945 2.23834 15.8945C3.25533 15.4048 4.72433 15.0658 5.81666 15.0658C7.28565 15.0658 8.86765 15.3671 9.95998 16.1958C10.977 15.5555 12.8226 15.0658 14.1033 15.0658C15.3463 15.0658 16.627 15.2918 17.6816 15.8568C17.757 15.8945 17.7946 15.8945 17.87 15.8945C18.0583 15.8945 18.2466 15.7061 18.2466 15.5178V4.51916C17.7946 4.18016 17.305 3.95416 16.74 3.76583ZM3.18 13.9358V5.27249C4.00867 5.00882 4.91266 4.89582 5.81666 4.89582C6.82612 4.89582 8.17458 5.20469 9.20665 5.64162V14.3049C8.17458 13.868 6.82612 13.5591 5.81666 13.5591C4.91266 13.5591 4.00867 13.6721 3.18 13.9358ZM16.74 13.9358C15.9113 13.6721 15.0073 13.5591 14.1033 13.5591C13.0938 13.5591 11.7454 13.868 10.7133 14.3049V5.64162C11.7454 5.19715 13.0938 4.89582 14.1033 4.89582C15.0073 4.89582 15.9113 5.00882 16.74 5.27249V13.9358Z" fill="#9D7A5A"/>
<path id="Vector_2" opacity="0.3" d="M9.20682 5.64326C8.17476 5.20633 6.8263 4.89746 5.81683 4.89746C4.91284 4.89746 4.00884 5.01046 3.18018 5.27413V13.9374C4.00884 13.6738 4.91284 13.5608 5.81683 13.5608C6.8263 13.5608 8.17476 13.8696 9.20682 14.3066V5.64326Z" fill="#9D7A5A"/>
<path id="Vector_3" d="M14.1032 7.90978C14.7661 7.90978 15.4065 7.97758 15.9865 8.10565V6.96058C15.3914 6.84758 14.7511 6.77979 14.1032 6.77979C13.1389 6.77979 12.25 6.90032 11.4666 7.13385V8.31658C12.2124 8.05291 13.1088 7.90978 14.1032 7.90978Z" fill="#9D7A5A"/>
<path id="Vector_4" d="M14.1032 9.91369C14.7661 9.91369 15.4065 9.98149 15.9865 10.1096V8.96449C15.3914 8.85149 14.7511 8.78369 14.1032 8.78369C13.1389 8.78369 12.25 8.90422 11.4666 9.13776V10.3205C12.2124 10.0644 13.1088 9.91369 14.1032 9.91369Z" fill="#9D7A5A"/>
<path id="Vector_5" d="M14.1032 11.9254C14.7661 11.9254 15.4065 11.9932 15.9865 12.1213V10.9762C15.3914 10.8632 14.7511 10.7954 14.1032 10.7954C13.1389 10.7954 12.25 10.9159 11.4666 11.1495V12.3322C12.2124 12.0685 13.1088 11.9254 14.1032 11.9254Z" fill="#9D7A5A"/>
</g>
</svg>
