<svg width="130" height="131" viewBox="0 0 130 131" fill="none" xmlns="http://www.w3.org/2000/svg">
<g id="Group">
<g id="&#240;&#159;&#166;&#134; icon &#34;Check Circle&#34;">
<path id="Vector" d="M84.2344 39.0987C84.2344 50.6088 74.9037 59.9395 63.3936 59.9395C51.8835 59.9395 42.5527 50.6088 42.5527 39.0987C42.5527 27.5885 51.8835 18.2578 63.3936 18.2578C74.9037 18.2578 84.2344 27.5885 84.2344 39.0987ZM60.9829 50.1337L76.4455 34.6712C76.9705 34.1461 76.9705 33.2947 76.4455 32.7697L74.544 30.8682C74.019 30.3431 73.1676 30.3431 72.6425 30.8682L60.0322 43.4784L54.1447 37.591C53.6196 37.0659 52.7683 37.0659 52.2431 37.591L50.3417 39.4924C49.8166 40.0175 49.8166 40.8689 50.3417 41.3939L59.0814 50.1336C59.6065 50.6588 60.4578 50.6588 60.9829 50.1337Z" fill="#9D7A5A"/>
</g>
<path id="Vector_2" d="M123.847 128.007L84.2051 79.6264L87.9228 76.5781L127.564 124.959L123.847 128.007Z" fill="#9D7A5A"/>
<path id="Vector_3" d="M129.786 123.564C129.786 127.43 126.652 130.564 122.786 130.564H7.00001C3.13402 130.564 0 127.43 0 123.564V56.6304C0 53.81 1.69267 51.2651 4.2938 50.1747L20.087 43.5543C21.3113 43.041 22.7199 43.6175 23.2333 44.8418C23.7466 46.0663 23.1701 47.475 21.9456 47.9883L9.10099 53.3719C6.49969 54.4622 4.80687 57.0072 4.80687 59.8277V118.756C4.80687 122.622 7.94087 125.756 11.8069 125.756H117.978C121.844 125.756 124.978 122.622 124.978 118.756V59.828C124.978 57.0073 123.285 54.4622 120.683 53.372L107.837 47.9882C106.612 47.475 106.036 46.0662 106.549 44.8417C107.062 43.6174 108.471 43.041 109.695 43.5541L125.491 50.1748C128.093 51.2651 129.786 53.8101 129.786 56.6307V123.564Z" fill="#9D7A5A"/>
<path id="Vector_4" d="M109.631 63.2707C109.631 64.5984 108.554 65.6746 107.227 65.6746C105.899 65.6746 104.823 64.5984 104.823 63.2707V10.5892C104.823 7.82777 102.584 5.5892 99.8228 5.5892H29.9651C27.2036 5.5892 24.9651 7.82778 24.9651 10.5892V63.2712C24.9651 64.5986 23.889 65.6746 22.5616 65.6746C21.2343 65.6746 20.1582 64.5985 20.1582 63.2712V5.78125C20.1582 3.01983 22.3968 0.78125 25.1582 0.78125H104.631C107.392 0.78125 109.631 3.01983 109.631 5.78125V63.2707Z" fill="#9D7A5A"/>
<path id="Vector_5" d="M68.6038 93.2571C66.3299 94.6827 63.4411 94.6827 61.1672 93.2571L3.15577 56.8875C2.03105 56.1824 1.69106 54.6989 2.39646 53.5744C3.1016 52.4502 4.58443 52.1103 5.70877 52.8152L61.1675 87.5815C63.4413 89.0069 66.3298 89.0069 68.6035 87.5815L124.063 52.8153C125.187 52.1105 126.67 52.4507 127.375 53.5751C128.08 54.6994 127.74 56.182 126.615 56.8868L68.6038 93.2571Z" fill="#9D7A5A"/>
<path id="Vector_6" d="M6.27829 128.007L2.56055 124.959L42.2052 76.5781L45.9231 79.6264L6.27829 128.007Z" fill="#9D7A5A"/>
</g>
</svg>
