<svg xmlns="http://www.w3.org/2000/svg" width="16" height="16" viewBox="0 0 16 16" fill="none">
  <g clip-path="url(#clip0_4_8777)">
    <path d="M12.714 3.28436C11.7817 2.35201 10.5938 1.71707 9.3006 1.45984C8.0074 1.2026 6.66695 1.33462 5.44878 1.83921C4.23061 2.34379 3.18941 3.19828 2.45687 4.2946C1.72433 5.39093 1.33334 6.67986 1.33334 7.99841C1.33334 9.31695 1.72433 10.6059 2.45687 11.7022C3.18941 12.7985 4.2306 13.653 5.44878 14.1576C6.66695 14.6622 8.0074 14.7942 9.3006 14.537C10.5938 14.2797 11.7817 13.6448 12.714 12.7124C13.3331 12.0934 13.8242 11.3585 14.1592 10.5496C14.4942 9.74079 14.6667 8.87388 14.6667 7.9984C14.6667 7.12293 14.4942 6.25602 14.1592 5.44718C13.8242 4.63835 13.3331 3.90342 12.714 3.28436ZM4.22877 11.7696C3.48289 11.0238 2.97493 10.0735 2.76915 9.03889C2.56336 8.00432 2.66898 6.93197 3.07264 5.95743C3.47631 4.98289 4.1599 4.14994 5.03696 3.5639C5.91402 2.97787 6.94517 2.66507 8 2.66507C9.05484 2.66507 10.086 2.97787 10.963 3.5639C11.8401 4.14993 12.5237 4.98289 12.9274 5.95743C13.331 6.93197 13.4366 8.00432 13.2309 9.03889C13.0251 10.0735 12.5171 11.0238 11.7712 11.7696C10.771 12.7698 9.41449 13.3317 8 13.3317C6.58551 13.3317 5.22896 12.7698 4.22877 11.7696ZM10.357 9.41262L8.94281 7.99841L10.357 6.58419C10.482 6.45917 10.5523 6.2896 10.5523 6.11279C10.5523 5.93598 10.482 5.76641 10.357 5.64138C10.232 5.51636 10.0624 5.44612 9.88562 5.44612C9.70881 5.44612 9.53924 5.51636 9.41422 5.64138L8 7.0556L6.58579 5.64138C6.46076 5.51636 6.29119 5.44612 6.11438 5.44612C5.93757 5.44612 5.768 5.51636 5.64298 5.64138C5.51796 5.76641 5.44772 5.93598 5.44772 6.11279C5.44772 6.2896 5.51795 6.45917 5.64298 6.58419L7.05719 7.99841L5.64298 9.41262C5.51795 9.53764 5.44772 9.70721 5.44772 9.88402C5.44772 10.0608 5.51796 10.2304 5.64298 10.3554C5.768 10.4805 5.93757 10.5507 6.11438 10.5507C6.29119 10.5507 6.46076 10.4805 6.58579 10.3554L8 8.94121L9.41422 10.3554C9.53924 10.4805 9.70881 10.5507 9.88562 10.5507C10.0624 10.5507 10.232 10.4805 10.357 10.3554C10.482 10.2304 10.5523 10.0608 10.5523 9.88402C10.5523 9.70721 10.482 9.53764 10.357 9.41262Z" fill="#EE5050"/>
  </g>
  <defs>
    <clipPath id="clip0_4_8777">
      <rect width="16" height="16" fill="white"/>
    </clipPath>
  </defs>
</svg>