<svg xmlns="http://www.w3.org/2000/svg" width="13" height="14" viewBox="0 0 13 14" fill="none">
<path fill-rule="evenodd" clip-rule="evenodd" d="M6.5 13.5C10.0899 13.5 13 10.5899 13 7C13 3.41015 10.0899 0.5 6.5 0.5C2.91015 0.5 0 3.41015 0 7C0 10.5899 2.91015 13.5 6.5 13.5ZM3.48797 3.98797C3.80528 3.67068 4.31972 3.67068 4.63703 3.98797L6.5 5.85095L8.36298 3.98797C8.68026 3.67068 9.19474 3.67068 9.51202 3.98797C9.8293 4.30528 9.8293 4.81972 9.51202 5.13703L7.64905 7L9.51202 8.86298C9.8293 9.18026 9.8293 9.69474 9.51202 10.012C9.19474 10.3293 8.68026 10.3293 8.36298 10.012L6.5 8.14905L4.63703 10.012C4.31972 10.3293 3.80528 10.3293 3.48797 10.012C3.17068 9.69474 3.17068 9.18026 3.48797 8.86298L5.35095 7L3.48797 5.13703C3.17068 4.81972 3.17068 4.30528 3.48797 3.98797Z" fill="#ADADAD"/>
</svg>