<svg width="17" height="16" viewBox="0 0 17 16" fill="none" xmlns="http://www.w3.org/2000/svg">
<g id="Add New / 24 / Outline">
<path id="Vector" d="M8.4987 1.33301C7.18016 1.33301 5.89123 1.724 4.7949 2.45654C3.69857 3.18909 2.84409 4.23028 2.3395 5.44845C1.83492 6.66663 1.7029 8.00707 1.96013 9.30028C2.21737 10.5935 2.85231 11.7814 3.78466 12.7137C4.71701 13.6461 5.90489 14.281 7.1981 14.5382C8.49131 14.7955 9.83175 14.6635 11.0499 14.1589C12.2681 13.6543 13.3093 12.7998 14.0418 11.7035C14.7744 10.6071 15.1654 9.31822 15.1654 7.99967C15.1654 7.1242 14.9929 6.25729 14.6579 5.44845C14.3229 4.63961 13.8318 3.90469 13.2127 3.28563C12.5937 2.66657 11.8588 2.17551 11.0499 1.84048C10.2411 1.50545 9.37418 1.33301 8.4987 1.33301ZM8.4987 13.333C7.44387 13.333 6.41272 13.0202 5.53566 12.4342C4.6586 11.8481 3.97501 11.0152 3.57134 10.0407C3.16768 9.06611 3.06206 7.99376 3.26785 6.95919C3.47363 5.92463 3.98158 4.97432 4.72746 4.22844C5.47334 3.48256 6.42365 2.97461 7.45822 2.76882C8.49278 2.56303 9.56514 2.66865 10.5397 3.07232C11.5142 3.47598 12.3472 4.15957 12.9332 5.03663C13.5192 5.9137 13.832 6.94484 13.832 7.99967C13.832 9.41416 13.2701 10.7707 12.2699 11.7709C11.2697 12.7711 9.91319 13.333 8.4987 13.333ZM11.1654 7.33301H9.16537L7.83203 7.33301L5.83203 7.33301C5.65522 7.33301 5.48565 7.40325 5.36063 7.52827C5.23561 7.65329 5.16537 7.82286 5.16537 7.99967C5.16537 8.17649 5.23561 8.34606 5.36063 8.47108C5.48565 8.5961 5.65522 8.66634 5.83203 8.66634H7.83203L9.16537 8.66634L11.1654 8.66634C11.3422 8.66634 11.5117 8.5961 11.6368 8.47108C11.7618 8.34606 11.832 8.17649 11.832 7.99967C11.832 7.82286 11.7618 7.65329 11.6368 7.52827C11.5117 7.40325 11.3422 7.33301 11.1654 7.33301Z" fill="#9D7A5A"/>
</g>
</svg>
