<svg xmlns="http://www.w3.org/2000/svg" height="20" viewBox="0 -960 960 960" width="20"><path d="M445.192-126.078q-67.846-6.616-126.23-36.577t-101.73-77.211q-43.346-47.25-68.058-108.897-24.711-61.647-24.711-130.816 0-139.728 92.711-240.035 92.711-100.308 228.018-112.538v47.96q-114.949 14.051-193.859 99.881-78.91 85.831-78.91 204.696 0 118.692 78.719 205.101 78.718 86.41 194.05 100.476v47.96Zm35.193-180.115-173.73-172.845 33.537-33.538L456.808-395.96v-258.462h47.961v257.655l116.193-116.194 33.537 32.653-174.114 174.115Zm35.192 180.115v-47.888q44.5-5.072 83.596-21.092 39.096-16.019 71.881-42.403l34.637 33.96q-40.482 32.183-87.971 51.918-47.489 19.735-102.143 25.505ZM670.962-719q-32.5-25.5-71.625-42.832-39.124-17.331-83.76-22.36v-47.96q54.654 5.384 102.452 25.312 47.798 19.927 88.662 52.11L670.962-719Zm84.922 465.307-34.73-34.038q25.692-32.807 42.442-72 16.75-39.192 21.822-83.692h48.119q-4.231 54.654-25.039 101.954-20.809 47.3-52.614 87.776Zm29.533-260.115q-5.071-44.5-21.821-83.192-16.75-38.692-42.442-72.692l36.499-35.615q31.03 41.246 50.572 89.046 19.543 47.8 25.312 102.453h-48.12Z" fill="#3c5151"/></svg>