<svg width="22" height="22" viewBox="0 0 22 22" fill="none" xmlns="http://www.w3.org/2000/svg">
<g id="vscode-icons:file-type-excel">
<path id="Vector" d="M13.4615 10.5535L5.85156 9.21289V19.1191C5.85165 19.2267 5.87294 19.3332 5.91421 19.4326C5.95547 19.532 6.01591 19.6223 6.09207 19.6984C6.16824 19.7744 6.25863 19.8347 6.35809 19.8758C6.45755 19.9169 6.56413 19.938 6.67175 19.9379H19.803C19.9107 19.9382 20.0175 19.9172 20.1171 19.8762C20.2167 19.8351 20.3073 19.7749 20.3836 19.6988C20.4599 19.6228 20.5204 19.5324 20.5618 19.433C20.6031 19.3335 20.6245 19.2268 20.6246 19.1191V15.4691L13.4615 10.5535Z" fill="#185C37"/>
<path id="Vector_2" d="M13.4615 2.0625H6.67175C6.56413 2.06241 6.45755 2.08352 6.35809 2.12462C6.25863 2.16572 6.16824 2.22601 6.09207 2.30204C6.01591 2.37807 5.95547 2.46836 5.91421 2.56776C5.87294 2.66715 5.85165 2.77369 5.85156 2.88131V6.53125L13.4615 11L17.4909 12.3406L20.6246 11V6.53125L13.4615 2.0625Z" fill="#21A366"/>
<path id="Vector_3" d="M5.85156 6.53125H13.4615V11H5.85156V6.53125Z" fill="#107C41"/>
<path id="Vector_4" opacity="0.1" d="M11.2979 5.6377H5.85156V16.8096H11.2979C11.515 16.8085 11.7228 16.7219 11.8765 16.5687C12.0301 16.4154 12.1172 16.2078 12.1188 15.9908V6.45651C12.1172 6.23949 12.0301 6.03185 11.8765 5.87859C11.7228 5.72532 11.515 5.63877 11.2979 5.6377Z" fill="#333333"/>
<path id="Vector_5" opacity="0.2" d="M10.8504 6.08398H5.85156V17.2559H10.8504C11.0674 17.2548 11.2753 17.1682 11.4289 17.015C11.5826 16.8617 11.6696 16.6541 11.6712 16.437V6.9028C11.6696 6.68578 11.5826 6.47814 11.4289 6.32488C11.2753 6.17161 11.0674 6.08506 10.8504 6.08398Z" fill="#333333"/>
<path id="Vector_6" opacity="0.2" d="M10.8504 6.08398H5.85156V16.3621H10.8504C11.0674 16.361 11.2753 16.2745 11.4289 16.1212C11.5826 15.968 11.6696 15.7603 11.6712 15.5433V6.9028C11.6696 6.68578 11.5826 6.47814 11.4289 6.32488C11.2753 6.17161 11.0674 6.08506 10.8504 6.08398Z" fill="#333333"/>
<path id="Vector_7" opacity="0.2" d="M10.4028 6.08398H5.85156V16.3621H10.4028C10.6198 16.361 10.8277 16.2745 10.9813 16.1212C11.135 15.968 11.2221 15.7603 11.2237 15.5433V6.9028C11.2221 6.68578 11.135 6.47814 10.9813 6.32488C10.8277 6.17161 10.6198 6.08506 10.4028 6.08398Z" fill="#333333"/>
<path id="Vector_8" d="M2.19587 6.08399H10.4032C10.6207 6.0838 10.8292 6.16995 10.9832 6.32348C11.1371 6.47702 11.2238 6.68539 11.2241 6.9028V15.0964C11.2238 15.3138 11.1371 15.5222 10.9832 15.6757C10.8292 15.8293 10.6207 15.9154 10.4032 15.9152H2.19587C2.0882 15.9154 1.98154 15.8944 1.882 15.8533C1.78246 15.8123 1.69199 15.752 1.61576 15.6759C1.53952 15.5999 1.47902 15.5096 1.43771 15.4101C1.3964 15.3107 1.37509 15.2041 1.375 15.0964V6.9028C1.37509 6.79512 1.3964 6.68852 1.43771 6.58908C1.47902 6.48965 1.53952 6.39932 1.61576 6.32328C1.69199 6.24724 1.78246 6.18697 1.882 6.14591C1.98154 6.10485 2.0882 6.0838 2.19587 6.08399Z" fill="url(#paint0_linear_3652_14642)"/>
<path id="Vector_9" d="M3.91797 13.6623L5.64428 10.992L4.06303 8.33691H5.33284L6.19566 10.0371C6.27541 10.198 6.33316 10.3176 6.35928 10.3974H6.37097C6.42734 10.2681 6.48716 10.1437 6.54972 10.022L7.47234 8.33966H8.64109L7.01928 10.9797L8.68234 13.6644H7.43866L6.44178 11.8005C6.39549 11.7204 6.35616 11.6365 6.32422 11.5496H6.30772C6.27865 11.6342 6.23989 11.7152 6.19222 11.7909L5.16578 13.6623H3.91797Z" fill="white"/>
<path id="Vector_10" d="M19.8051 2.0625H13.4629V6.53125H20.626V2.88131C20.6259 2.77364 20.6046 2.66703 20.5632 2.5676C20.5219 2.46816 20.4614 2.37784 20.3852 2.3018C20.309 2.22575 20.2185 2.16548 20.119 2.12442C20.0194 2.08336 19.9128 2.06232 19.8051 2.0625Z" fill="#33C481"/>
<path id="Vector_11" d="M13.4629 11H20.626V15.4688H13.4629V11Z" fill="#107C41"/>
</g>
<defs>
<linearGradient id="paint0_linear_3652_14642" x1="3.08962" y1="5.44049" x2="9.5095" y2="16.5587" gradientUnits="userSpaceOnUse">
<stop stop-color="#18884F"/>
<stop offset="0.5" stop-color="#117E43"/>
<stop offset="1" stop-color="#0B6631"/>
</linearGradient>
</defs>
</svg>
