<svg width="22" height="22" viewBox="0 0 22 22" fill="none" xmlns="http://www.w3.org/2000/svg">
<rect width="22" height="22" rx="3" transform="matrix(1 0 0 -1 0 22)" fill="#F7C088" fill-opacity="0.52"/>
<path d="M10.9987 4.33594C9.68016 4.33594 8.39123 4.72693 7.2949 5.45947C6.19857 6.19202 5.34409 7.23321 4.8395 8.45138C4.33492 9.66955 4.2029 11.01 4.46013 12.3032C4.71737 13.5964 5.35231 14.7843 6.28466 15.7166C7.21701 16.649 8.40489 17.2839 9.6981 17.5412C10.9913 17.7984 12.3318 17.6664 13.5499 17.1618C14.7681 16.6572 15.8093 15.8027 16.5418 14.7064C17.2744 13.6101 17.6654 12.3211 17.6654 11.0026C17.6654 10.1271 17.4929 9.26022 17.1579 8.45138C16.8229 7.64254 16.3318 6.90762 15.7127 6.28856C15.0937 5.6695 14.3588 5.17844 13.5499 4.84341C12.7411 4.50838 11.8742 4.33594 10.9987 4.33594ZM10.9987 16.3359C9.94387 16.3359 8.91272 16.0231 8.03566 15.4371C7.1586 14.8511 6.47501 14.0181 6.07134 13.0436C5.66768 12.069 5.56206 10.9967 5.76785 9.96212C5.97363 8.92756 6.48158 7.97725 7.22746 7.23137C7.97334 6.48549 8.92365 5.97754 9.95822 5.77175C10.9928 5.56596 12.0651 5.67158 13.0397 6.07525C14.0142 6.47891 14.8472 7.1625 15.4332 8.03956C16.0192 8.91662 16.332 9.94777 16.332 11.0026C16.332 12.4171 15.7701 13.7736 14.7699 14.7738C13.7697 15.774 12.4132 16.3359 10.9987 16.3359ZM13.6654 10.3359H11.6654V8.33594C11.6654 8.15913 11.5951 7.98956 11.4701 7.86453C11.3451 7.73951 11.1755 7.66927 10.9987 7.66927C10.8219 7.66927 10.6523 7.73951 10.5273 7.86453C10.4023 7.98956 10.332 8.15913 10.332 8.33594V10.3359H8.33203C8.15522 10.3359 7.98565 10.4062 7.86063 10.5312C7.73561 10.6562 7.66537 10.8258 7.66537 11.0026C7.66537 11.1794 7.73561 11.349 7.86063 11.474C7.98565 11.599 8.15522 11.6693 8.33203 11.6693H10.332V13.6693C10.332 13.8461 10.4023 14.0157 10.5273 14.1407C10.6523 14.2657 10.8219 14.3359 10.9987 14.3359C11.1755 14.3359 11.3451 14.2657 11.4701 14.1407C11.5951 14.0157 11.6654 13.8461 11.6654 13.6693V11.6693H13.6654C13.8422 11.6693 14.0117 11.599 14.1368 11.474C14.2618 11.349 14.332 11.1794 14.332 11.0026C14.332 10.8258 14.2618 10.6562 14.1368 10.5312C14.0117 10.4062 13.8422 10.3359 13.6654 10.3359Z" fill="#87694E"/>
</svg>
