<svg xmlns="http://www.w3.org/2000/svg" width="20" height="20" viewBox="0 0 20 20" fill="none">
  <g clip-path="url(#clip0_9279_11137)">
    <path d="M7.77821 2.21875H3.33377C2.72012 2.21875 2.22266 2.71621 2.22266 3.32986V7.77431C2.22266 8.38795 2.72012 8.88542 3.33377 8.88542H7.77821C8.39186 8.88542 8.88932 8.38795 8.88932 7.77431V3.32986C8.88932 2.71621 8.39186 2.21875 7.77821 2.21875Z" fill="black" fill-opacity="0.7"/>
    <path d="M16.6669 2.21875H12.2224C11.6088 2.21875 11.1113 2.71621 11.1113 3.32986V7.77431C11.1113 8.38795 11.6088 8.88542 12.2224 8.88542H16.6669C17.2805 8.88542 17.778 8.38795 17.778 7.77431V3.32986C17.778 2.71621 17.2805 2.21875 16.6669 2.21875Z" fill="black" fill-opacity="0.7"/>
    <path d="M7.77821 11.1094H3.33377C2.72012 11.1094 2.22266 11.6068 2.22266 12.2205V16.6649C2.22266 17.2786 2.72012 17.776 3.33377 17.776H7.77821C8.39186 17.776 8.88932 17.2786 8.88932 16.6649V12.2205C8.88932 11.6068 8.39186 11.1094 7.77821 11.1094Z" fill="black" fill-opacity="0.7"/>
    <path d="M16.6669 11.1094H12.2224C11.6088 11.1094 11.1113 11.6068 11.1113 12.2205V16.6649C11.1113 17.2786 11.6088 17.776 12.2224 17.776H16.6669C17.2805 17.776 17.778 17.2786 17.778 16.6649V12.2205C17.778 11.6068 17.2805 11.1094 16.6669 11.1094Z" fill="black" fill-opacity="0.7"/>
  </g>
  <defs>
    <clipPath id="clip0_9279_11137">
      <rect width="20" height="20" fill="white"/>
    </clipPath>
  </defs>
</svg>