<svg width="20" height="20" viewBox="0 0 20 20" fill="none" xmlns="http://www.w3.org/2000/svg">
<path d="M9.99967 8.66406C10.3679 8.66406 10.6663 8.96254 10.6663 9.33073V13.3307C10.6663 13.6989 10.3679 13.9974 9.99967 13.9974C9.63149 13.9974 9.33301 13.6989 9.33301 13.3307V9.33073C9.33301 8.96254 9.63149 8.66406 9.99967 8.66406Z" fill="#808080"/>
<path d="M10.0016 7.6693C10.5532 7.6693 11.0004 7.22216 11.0004 6.67058C11.0004 6.11901 10.5532 5.67188 10.0016 5.67188C9.45006 5.67188 9.00293 6.11901 9.00293 6.67058C9.00293 7.22216 9.45006 7.6693 10.0016 7.6693Z" fill="#808080"/>
<path d="M2 10C2 5.58172 5.58172 2 10 2C14.4183 2 18 5.58172 18 10C18 14.4183 14.4183 18 10 18C5.58172 18 2 14.4183 2 10ZM10 3.33333C6.31811 3.33333 3.33333 6.31811 3.33333 10C3.33333 13.6819 6.31811 16.6667 10 16.6667C13.6819 16.6667 16.6667 13.6819 16.6667 10C16.6667 6.31811 13.6819 3.33333 10 3.33333Z" fill="#808080"/>
</svg>
