<svg xmlns="http://www.w3.org/2000/svg" width="20" height="20" viewBox="0 0 20 20" fill="none">
  <path d="M16.6667 17.5H4.16667C3.70833 17.5 3.31583 17.3367 2.98917 17.01C2.6625 16.6833 2.49945 16.2911 2.5 15.8333V4.16667C2.5 3.70833 2.66333 3.31583 2.99 2.98917C3.31667 2.6625 3.70889 2.49945 4.16667 2.5H16.6667C17.125 2.5 17.5175 2.66333 17.8442 2.99C18.1708 3.31667 18.3339 3.70889 18.3333 4.16667V15.8333C18.3333 16.2917 18.17 16.6842 17.8433 17.0108C17.5167 17.3375 17.1244 17.5006 16.6667 17.5ZM4.16667 6.66667H16.6667V4.16667H4.16667V6.66667ZM6.66667 8.33333H4.16667V15.8333H6.66667V8.33333ZM14.1667 8.33333V15.8333H16.6667V8.33333H14.1667ZM12.5 8.33333H8.33333V15.8333H12.5V8.33333Z" fill="black" fill-opacity="0.7"/>
</svg>