<svg width="128" height="128" viewBox="0 0 128 128" fill="none" xmlns="http://www.w3.org/2000/svg">
<g id="LockKey-d">
<path id="Vector" fill-rule="evenodd" clip-rule="evenodd" d="M24 44H104C105.061 44 106.078 44.4214 106.828 45.1716C107.578 45.9218 108 46.9391 108 48V104C108 105.061 107.578 106.078 106.828 106.828C106.078 107.579 105.061 108 104 108H24C22.9395 108 21.9219 107.579 21.1719 106.828C20.4219 106.078 20 105.061 20 104V48C20 46.9391 20.4219 45.9218 21.1719 45.1716C21.9219 44.4214 22.9395 44 24 44ZM58.4443 78.3147C60.0889 79.4136 62.0225 80 64 80C66.6523 80 69.1953 78.9464 71.0713 77.071C72.9463 75.1957 74 72.6522 74 70C74 68.0222 73.4131 66.0887 72.3145 64.4443C71.2158 62.7998 69.6543 61.5181 67.8271 60.7612C66 60.0043 63.9893 59.8063 62.0488 60.1921C60.1094 60.578 58.3271 61.5304 56.9287 62.929C55.5303 64.3275 54.5781 66.1093 54.1924 68.0491C53.8066 69.9889 54.0039 71.9996 54.7607 73.8268C55.5186 75.6541 56.7998 77.2158 58.4443 78.3147Z" fill="#FFE194"/>
<path id="Vector_2" fill-rule="evenodd" clip-rule="evenodd" d="M64 56C64 56 69.799 56 73.8995 60.1005C73.8995 60.1005 78 64.201 78 70C78 70 78 75.799 73.8995 79.8995C73.8995 79.8995 69.799 84 64 84C64 84 58.201 84 54.1005 79.8995C54.1005 79.8995 50 75.799 50 70C50 70 50 64.201 54.1005 60.1005C54.1005 60.1005 58.201 56 64 56ZM64 64C64 64 61.5147 64 59.7574 65.7574C59.7574 65.7574 58 67.5147 58 70C58 70 58 72.4853 59.7574 74.2426C59.7574 74.2426 61.5147 76 64 76C64 76 66.4853 76 68.2426 74.2426C68.2426 74.2426 70 72.4853 70 70C70 70 70 67.5147 68.2426 65.7574C68.2426 65.7574 66.4853 64 64 64Z" fill="#9D7A5A"/>
<path id="Vector_3" d="M60 80V92C60 94.2091 61.7909 96 64 96C66.2091 96 68 94.2091 68 92V80C68 77.7909 66.2091 76 64 76C61.7909 76 60 77.7909 60 80Z" fill="#9D7A5A"/>
<path id="Vector_4" fill-rule="evenodd" clip-rule="evenodd" d="M16 48C16 48 16 44.6863 18.3431 42.3431C18.3431 42.3431 20.6863 40 24 40H104C104 40 107.314 40 109.657 42.3431C109.657 42.3431 112 44.6863 112 48V104C112 104 112 107.314 109.657 109.657C109.657 109.657 107.314 112 104 112H24C24 112 20.6863 112 18.3431 109.657C18.3431 109.657 16 107.314 16 104V48ZM24 48V104L104 104V48H24Z" fill="#9D7A5A"/>
<path id="Vector_5" d="M78 26V44C78 46.2091 79.7909 48 82 48C84.2091 48 86 46.2091 86 44V26C86 16.8873 79.5563 10.4437 79.5563 10.4437C73.1127 4 64 4 64 4C54.8873 4 48.4437 10.4437 48.4437 10.4437C42 16.8873 42 26 42 26L42 44C42 46.2091 43.7909 48 46 48C48.2091 48 50 46.2091 50 44V26C50 20.201 54.1005 16.1005 54.1005 16.1005C58.201 12 64 12 64 12C69.799 12 73.8995 16.1005 73.8995 16.1005C78 20.201 78 26 78 26Z" fill="#9D7A5A"/>
</g>
</svg>
