<svg width="110" height="111" viewBox="0 0 110 111" fill="none" xmlns="http://www.w3.org/2000/svg">
<path d="M33.5693 67.5284L4.06836 103.859V48.8643L33.5693 67.5284Z" fill="#FFE194"/>
<path d="M36.9846 67.6946L54.9487 79.6757L73.1027 67.5669L103.401 106.91H6.78027L36.9846 67.6946Z" fill="#FFE194"/>
<path d="M76.6221 67.4074L105.934 48.8643V103.509L76.6221 67.4074Z" fill="#FFE194"/>
<path d="M103.56 45.505L92.9233 52.2349V41.0063L103.56 45.505Z" fill="#9D7A5A"/>
<path d="M19.1299 55.9578V2.05127H90.8882V55.9578L55.0091 78.6573L19.1299 55.9578Z" fill="#FFE194"/>
<path d="M17.0768 52.2349L6.43848 45.505L17.0768 41.0063V52.2349Z" fill="#9D7A5A"/>
<path d="M71.3928 32.772C71.3928 42.6163 63.4845 50.5967 53.7291 50.5967C43.9737 50.5967 36.0654 42.6163 36.0654 32.772C36.0654 22.9276 43.9737 14.9473 53.7291 14.9473C63.4845 14.9473 71.3928 22.9276 71.3928 32.772ZM51.686 42.21L64.7913 28.9852C65.2363 28.5362 65.2363 27.808 64.7913 27.3589L63.1797 25.7326C62.7347 25.2835 62.0131 25.2835 61.568 25.7326L50.8801 36.5179L45.8902 31.4825C45.4452 31.0334 44.7236 31.0334 44.2785 31.4825L42.6669 33.1088C42.2219 33.5578 42.2219 34.286 42.6669 34.7351L50.0743 42.2099C50.5194 42.6591 51.2409 42.6591 51.686 42.21Z" fill="#9D7A5A"/>
<path d="M104.967 108.813L71.3687 67.4343L74.5196 64.8271L108.118 106.206L104.967 108.813Z" fill="#9D7A5A"/>
<path d="M110 104C110 107.866 106.866 111 103 111H7C3.13401 111 0 107.866 0 104V48.424C0 45.6119 1.68289 43.0727 4.27286 41.9771L17.0005 36.5931C18.0496 36.1494 19.2594 36.6444 19.6965 37.6963C20.1296 38.7388 19.6399 39.9353 18.6002 40.3751L8.34725 44.7116C5.75711 45.8071 4.07407 48.3464 4.07407 51.1587V99.8879C4.07407 103.754 7.20807 106.888 11.0741 106.888H98.925C102.791 106.888 105.925 103.754 105.925 99.8879V51.1589C105.925 48.3465 104.242 45.8072 101.652 44.7117L91.3971 40.375C90.3574 39.9353 89.8677 38.7387 90.3008 37.6962C90.7378 36.6444 91.9476 36.1493 92.9967 36.593L105.727 41.9772C108.317 43.0728 110 45.612 110 48.4243V104Z" fill="#9D7A5A"/>
<path d="M92.9179 53.4644C92.9179 54.5896 92.0057 55.5018 90.8805 55.5018C89.7553 55.5018 88.8431 54.5896 88.8431 53.4644V9.11213C88.8431 6.35071 86.6045 4.11213 83.8431 4.11213H26.1595C23.3981 4.11213 21.1595 6.35071 21.1595 9.11213V53.4648C21.1595 54.5898 20.2475 55.5018 19.1225 55.5018C17.9975 55.5018 17.0854 54.5898 17.0854 53.4648V5C17.0854 2.23857 19.324 0 22.0854 0H87.9179C90.6793 0 92.9179 2.23858 92.9179 5V53.4644Z" fill="#9D7A5A"/>
<path d="M58.736 78.7186C56.4505 80.1646 53.5365 80.1646 51.251 78.7187L2.66707 47.9819C1.71559 47.3799 1.4276 46.1233 2.02199 45.1671C2.62307 44.2001 3.89696 43.9081 4.85918 44.5168L51.2513 73.8645C53.5367 75.3102 56.4504 75.3102 58.7358 73.8645L105.129 44.517C106.091 43.9083 107.365 44.2005 107.965 45.1677C108.559 46.1237 108.271 47.3796 107.32 47.9812L58.736 78.7186Z" fill="#9D7A5A"/>
<path d="M5.32139 108.813L2.17041 106.206L35.7713 64.8271L38.9224 67.4343L5.32139 108.813Z" fill="#9D7A5A"/>
</svg>
