<svg width="82" height="80" viewBox="0 0 82 80" fill="none" xmlns="http://www.w3.org/2000/svg">
<g id="undraw_no_data_re_kwbl 1" clip-path="url(#clip0_120_25808)">
<path id="Vector" d="M52.0569 17.9917H29.9615C29.458 17.9923 28.9753 18.1925 28.6192 18.5483C28.2632 18.9042 28.0629 19.3866 28.0623 19.8899V68.9713L27.8091 69.0485L22.3887 70.7075C22.1318 70.7858 21.8543 70.759 21.6172 70.6331C21.3801 70.5071 21.2026 70.2922 21.1238 70.0356L5.00074 17.3981C4.92228 17.1414 4.94902 16.864 5.07509 16.627C5.20116 16.3899 5.41624 16.2126 5.67307 16.1339L14.0258 13.5777L38.2408 6.16959L46.5935 3.61333C46.7206 3.57423 46.8542 3.56057 46.9866 3.57312C47.119 3.58568 47.2477 3.62421 47.3652 3.68651C47.4826 3.7488 47.5867 3.83364 47.6713 3.93618C47.756 4.03871 47.8196 4.15691 47.8584 4.28403L51.9797 17.7386L52.0569 17.9917Z" fill="#F2F2F2"/>
<path id="Vector_2" d="M56.8787 17.7388L51.9116 1.52304C51.829 1.25286 51.6939 1.00159 51.514 0.783613C51.3342 0.565632 51.1132 0.385205 50.8635 0.252641C50.6139 0.120077 50.3406 0.0379735 50.0592 0.0110254C49.7778 -0.0159228 49.4939 0.0128124 49.2236 0.095586L37.4801 3.68827L13.2664 11.0976L1.52296 14.6916C0.977421 14.859 0.520633 15.2359 0.252861 15.7396C-0.0149106 16.2433 -0.071789 16.8326 0.0947129 17.3782L17.0712 72.7971C17.2064 73.2375 17.4793 73.623 17.8499 73.897C18.2204 74.171 18.669 74.319 19.1299 74.3195C19.3433 74.3196 19.5554 74.2876 19.7592 74.2246L27.8093 71.762L28.0626 71.6835V71.419L27.8093 71.4962L19.6845 73.9829C19.203 74.1296 18.6829 74.0794 18.2383 73.8434C17.7937 73.6073 17.461 73.2047 17.313 72.7237L0.337864 17.3035C0.264566 17.0652 0.23902 16.8148 0.262687 16.5666C0.286354 16.3184 0.358769 16.0774 0.475788 15.8572C0.592808 15.637 0.752134 15.4421 0.944638 15.2836C1.13714 15.125 1.35904 15.006 1.59764 14.9333L13.3411 11.3393L37.5549 3.93124L49.2983 0.337294C49.4793 0.282094 49.6674 0.253949 49.8567 0.253772C50.2627 0.254684 50.6578 0.385528 50.9841 0.627141C51.3104 0.868754 51.5507 1.20844 51.6698 1.59644L56.6141 17.7388L56.6926 17.9919H56.956L56.8787 17.7388Z" fill="#AFAFAF"/>
<path id="Vector_3" d="M15.5333 16.1755C15.2893 16.1753 15.0517 16.097 14.8555 15.952C14.6593 15.807 14.5147 15.6029 14.443 15.3698L12.8122 10.0457C12.7683 9.9027 12.7531 9.75246 12.7674 9.60357C12.7817 9.45468 12.8252 9.31006 12.8954 9.17797C12.9656 9.04588 13.0611 8.92891 13.1766 8.83374C13.292 8.73856 13.4251 8.66705 13.5682 8.62329L35.8446 1.80696C36.1336 1.71883 36.4457 1.74889 36.7126 1.89054C36.9794 2.0322 37.1791 2.27388 37.2678 2.56254L38.8987 7.88668C38.9868 8.17551 38.9567 8.48748 38.815 8.75416C38.6732 9.02083 38.4315 9.22043 38.1427 9.30916L15.8662 16.1255C15.7584 16.1586 15.6462 16.1754 15.5333 16.1755Z" fill="#AFAFAF"/>
<path id="Vector_4" d="M24.0762 5.68885C25.4748 5.68885 26.6085 4.55571 26.6085 3.1579C26.6085 1.7601 25.4748 0.626953 24.0762 0.626953C22.6777 0.626953 21.5439 1.7601 21.5439 3.1579C21.5439 4.55571 22.6777 5.68885 24.0762 5.68885Z" fill="#AFAFAF"/>
<path id="Vector_5" d="M24.0762 4.76053C24.9618 4.76053 25.6797 4.04298 25.6797 3.15785C25.6797 2.27272 24.9618 1.55518 24.0762 1.55518C23.1906 1.55518 22.4727 2.27272 22.4727 3.15785C22.4727 4.04298 23.1906 4.76053 24.0762 4.76053Z" fill="white"/>
<path id="Vector_6" d="M76.3025 73.6726H33.5069C33.2216 73.6722 32.948 73.5588 32.7462 73.3571C32.5445 73.1555 32.431 72.8821 32.4307 72.5969V21.3452C32.431 21.06 32.5445 20.7866 32.7462 20.5849C32.948 20.3833 33.2216 20.2698 33.5069 20.2695H76.3025C76.5878 20.2699 76.8614 20.3833 77.0632 20.5849C77.2649 20.7866 77.3784 21.06 77.3787 21.3452V72.5969C77.3784 72.8821 77.2649 73.1555 77.0631 73.3571C76.8614 73.5588 76.5878 73.6722 76.3025 73.6726Z" fill="#E6E6E6"/>
<path id="Vector_7" d="M56.6138 17.7385H29.9615C29.3909 17.7393 28.8439 17.9662 28.4404 18.3695C28.0369 18.7728 27.8099 19.3195 27.8091 19.8898V71.4959L28.0623 71.4187V19.8898C28.0629 19.3866 28.2632 18.9041 28.6193 18.5483C28.9753 18.1924 29.458 17.9922 29.9615 17.9916H56.6923L56.6138 17.7385ZM79.8476 17.7385H29.9615C29.3909 17.7393 28.8439 17.9662 28.4404 18.3695C28.0369 18.7728 27.8099 19.3195 27.8091 19.8898V77.8486C27.8099 78.4189 28.0369 78.9656 28.4404 79.3689C28.8439 79.7722 29.3909 79.9991 29.9615 79.9999H79.8476C80.4182 79.9991 80.9652 79.7722 81.3687 79.3689C81.7722 78.9656 81.9992 78.4189 82 77.8486V19.8898C81.9992 19.3195 81.7722 18.7728 81.3687 18.3695C80.9652 17.9662 80.4182 17.7393 79.8476 17.7385ZM81.7468 77.8486C81.7462 78.3518 81.5459 78.8343 81.1898 79.1901C80.8338 79.546 80.3511 79.7462 79.8476 79.7468H29.9615C29.458 79.7462 28.9753 79.546 28.6193 79.1901C28.2632 78.8343 28.0629 78.3518 28.0623 77.8486V19.8898C28.0629 19.3866 28.2632 18.9041 28.6193 18.5483C28.9753 18.1924 29.458 17.9922 29.9615 17.9916H79.8476C80.3511 17.9922 80.8338 18.1924 81.1898 18.5483C81.5459 18.9041 81.7462 19.3866 81.7468 19.8898V77.8486Z" fill="#AFAFAF"/>
<path id="Vector_8" d="M66.5533 23.3066H43.2562C42.9541 23.3063 42.6645 23.1862 42.4508 22.9727C42.2372 22.7592 42.117 22.4697 42.1167 22.1677V16.5996C42.117 16.2977 42.2372 16.0082 42.4508 15.7947C42.6645 15.5811 42.9541 15.461 43.2562 15.4607H66.5533C66.8554 15.461 67.145 15.5811 67.3586 15.7947C67.5723 16.0082 67.6924 16.2977 67.6928 16.5996V22.1677C67.6924 22.4697 67.5723 22.7592 67.3587 22.9727C67.145 23.1862 66.8554 23.3063 66.5533 23.3066Z" fill="#AFAFAF"/>
<path id="Vector_9" d="M54.9044 15.8405C56.3029 15.8405 57.4366 14.7073 57.4366 13.3095C57.4366 11.9117 56.3029 10.7786 54.9044 10.7786C53.5058 10.7786 52.3721 11.9117 52.3721 13.3095C52.3721 14.7073 53.5058 15.8405 54.9044 15.8405Z" fill="#AFAFAF"/>
<path id="Vector_10" d="M54.9047 14.851C55.7565 14.851 56.4471 14.1608 56.4471 13.3094C56.4471 12.458 55.7565 11.7678 54.9047 11.7678C54.0529 11.7678 53.3623 12.458 53.3623 13.3094C53.3623 14.1608 54.0529 14.851 54.9047 14.851Z" fill="white"/>
</g>
<defs>
<clipPath id="clip0_120_25808">
<rect width="82" height="80" fill="white"/>
</clipPath>
</defs>
</svg>
