<svg width="84" height="84" viewBox="0 0 84 84" fill="none" xmlns="http://www.w3.org/2000/svg">
<rect x="0.230769" y="0.230769" width="83.5385" height="83.5385" rx="9" stroke="#9D7A5A" stroke-opacity="0.33" stroke-width="0.461538"/>
<path d="M34.4902 23.5391H44.549L56.8786 38.3978L44.7729 54.2451H34.4902L46.8198 38.8921L34.4902 23.5391Z" fill="#FFF6F0"/>
<path d="M49.9805 23.5391H60.0392L72.3688 38.3978L60.2631 54.2451H49.9805L62.31 38.8921L49.9805 23.5391Z" fill="#FFF6F0"/>
<path d="M33.3549 25.2881L12.0859 51.5148L18.5306 58.6199L28.2695 46.4795L34.4903 54.2487L39.0799 48.5184L33.131 39.9306L39.0799 32.9337L33.3549 25.2881Z" fill="#FAE3C9"/>
<path d="M28.4707 37H27.5607L23.9007 31.45V37H22.9907V30.02H23.9007L27.5607 35.56V30.02H28.4707V37ZM32.412 37.09C31.8986 37.09 31.432 36.9733 31.012 36.74C30.5986 36.5067 30.272 36.1767 30.032 35.75C29.7986 35.3167 29.682 34.8167 29.682 34.25C29.682 33.69 29.802 33.1967 30.042 32.77C30.2886 32.3367 30.622 32.0067 31.042 31.78C31.462 31.5467 31.932 31.43 32.452 31.43C32.972 31.43 33.442 31.5467 33.862 31.78C34.282 32.0067 34.612 32.3333 34.852 32.76C35.0986 33.1867 35.222 33.6833 35.222 34.25C35.222 34.8167 35.0953 35.3167 34.842 35.75C34.5953 36.1767 34.2586 36.5067 33.832 36.74C33.4053 36.9733 32.932 37.09 32.412 37.09ZM32.412 36.29C32.7386 36.29 33.0453 36.2133 33.332 36.06C33.6186 35.9067 33.8486 35.6767 34.022 35.37C34.202 35.0633 34.292 34.69 34.292 34.25C34.292 33.81 34.2053 33.4367 34.032 33.13C33.8586 32.8233 33.632 32.5967 33.352 32.45C33.072 32.2967 32.7686 32.22 32.442 32.22C32.1086 32.22 31.802 32.2967 31.522 32.45C31.2486 32.5967 31.0286 32.8233 30.862 33.13C30.6953 33.4367 30.612 33.81 30.612 34.25C30.612 34.6967 30.692 35.0733 30.852 35.38C31.0186 35.6867 31.2386 35.9167 31.512 36.07C31.7853 36.2167 32.0853 36.29 32.412 36.29ZM39.9945 36.26H42.4345V37H39.0845V30.03H39.9945V36.26ZM45.7909 37.09C45.2775 37.09 44.8109 36.9733 44.3909 36.74C43.9775 36.5067 43.6509 36.1767 43.4109 35.75C43.1775 35.3167 43.0609 34.8167 43.0609 34.25C43.0609 33.69 43.1809 33.1967 43.4209 32.77C43.6675 32.3367 44.0009 32.0067 44.4209 31.78C44.8409 31.5467 45.3109 31.43 45.8309 31.43C46.3509 31.43 46.8209 31.5467 47.2409 31.78C47.6609 32.0067 47.9909 32.3333 48.2309 32.76C48.4775 33.1867 48.6009 33.6833 48.6009 34.25C48.6009 34.8167 48.4742 35.3167 48.2209 35.75C47.9742 36.1767 47.6375 36.5067 47.2109 36.74C46.7842 36.9733 46.3109 37.09 45.7909 37.09ZM45.7909 36.29C46.1175 36.29 46.4242 36.2133 46.7109 36.06C46.9975 35.9067 47.2275 35.6767 47.4009 35.37C47.5809 35.0633 47.6709 34.69 47.6709 34.25C47.6709 33.81 47.5842 33.4367 47.4109 33.13C47.2375 32.8233 47.0109 32.5967 46.7309 32.45C46.4509 32.2967 46.1475 32.22 45.8209 32.22C45.4875 32.22 45.1809 32.2967 44.9009 32.45C44.6275 32.5967 44.4075 32.8233 44.2409 33.13C44.0742 33.4367 43.9909 33.81 43.9909 34.25C43.9909 34.6967 44.0709 35.0733 44.2309 35.38C44.3975 35.6867 44.6175 35.9167 44.8909 36.07C45.1642 36.2167 45.4642 36.29 45.7909 36.29ZM52.0573 31.43C52.5307 31.43 52.944 31.5333 53.2973 31.74C53.6573 31.9467 53.924 32.2067 54.0973 32.52V31.52H55.0173V37.12C55.0173 37.62 54.9107 38.0633 54.6973 38.45C54.484 38.8433 54.1773 39.15 53.7773 39.37C53.384 39.59 52.924 39.7 52.3973 39.7C51.6773 39.7 51.0773 39.53 50.5973 39.19C50.1173 38.85 49.834 38.3867 49.7473 37.8H50.6473C50.7473 38.1333 50.954 38.4 51.2673 38.6C51.5807 38.8067 51.9573 38.91 52.3973 38.91C52.8973 38.91 53.304 38.7533 53.6173 38.44C53.9373 38.1267 54.0973 37.6867 54.0973 37.12V35.97C53.9173 36.29 53.6507 36.5567 53.2973 36.77C52.944 36.9833 52.5307 37.09 52.0573 37.09C51.5707 37.09 51.1273 36.97 50.7273 36.73C50.334 36.49 50.024 36.1533 49.7973 35.72C49.5707 35.2867 49.4573 34.7933 49.4573 34.24C49.4573 33.68 49.5707 33.19 49.7973 32.77C50.024 32.3433 50.334 32.0133 50.7273 31.78C51.1273 31.5467 51.5707 31.43 52.0573 31.43ZM54.0973 34.25C54.0973 33.8367 54.014 33.4767 53.8473 33.17C53.6807 32.8633 53.454 32.63 53.1673 32.47C52.8873 32.3033 52.5773 32.22 52.2373 32.22C51.8973 32.22 51.5873 32.3 51.3073 32.46C51.0273 32.62 50.804 32.8533 50.6373 33.16C50.4707 33.4667 50.3873 33.8267 50.3873 34.24C50.3873 34.66 50.4707 35.0267 50.6373 35.34C50.804 35.6467 51.0273 35.8833 51.3073 36.05C51.5873 36.21 51.8973 36.29 52.2373 36.29C52.5773 36.29 52.8873 36.21 53.1673 36.05C53.454 35.8833 53.6807 35.6467 53.8473 35.34C54.014 35.0267 54.0973 34.6633 54.0973 34.25ZM58.9452 37.09C58.4318 37.09 57.9652 36.9733 57.5452 36.74C57.1318 36.5067 56.8052 36.1767 56.5652 35.75C56.3318 35.3167 56.2152 34.8167 56.2152 34.25C56.2152 33.69 56.3352 33.1967 56.5752 32.77C56.8218 32.3367 57.1552 32.0067 57.5752 31.78C57.9952 31.5467 58.4652 31.43 58.9852 31.43C59.5052 31.43 59.9752 31.5467 60.3952 31.78C60.8152 32.0067 61.1452 32.3333 61.3852 32.76C61.6318 33.1867 61.7552 33.6833 61.7552 34.25C61.7552 34.8167 61.6285 35.3167 61.3752 35.75C61.1285 36.1767 60.7918 36.5067 60.3652 36.74C59.9385 36.9733 59.4652 37.09 58.9452 37.09ZM58.9452 36.29C59.2718 36.29 59.5785 36.2133 59.8652 36.06C60.1518 35.9067 60.3818 35.6767 60.5552 35.37C60.7352 35.0633 60.8252 34.69 60.8252 34.25C60.8252 33.81 60.7385 33.4367 60.5652 33.13C60.3918 32.8233 60.1652 32.5967 59.8852 32.45C59.6052 32.2967 59.3018 32.22 58.9752 32.22C58.6418 32.22 58.3352 32.2967 58.0552 32.45C57.7818 32.5967 57.5618 32.8233 57.3952 33.13C57.2285 33.4367 57.1452 33.81 57.1452 34.25C57.1452 34.6967 57.2252 35.0733 57.3852 35.38C57.5518 35.6867 57.7718 35.9167 58.0452 36.07C58.3185 36.2167 58.6185 36.29 58.9452 36.29ZM23.9906 50.45H20.9506L20.3906 52H19.4306L21.9506 45.07H23.0006L25.5106 52H24.5506L23.9906 50.45ZM23.7306 49.71L22.4706 46.19L21.2106 49.71H23.7306ZM28.6489 51.16L30.3489 46.52H31.3189L29.1689 52H28.1089L25.9589 46.52H26.9389L28.6489 51.16ZM31.8743 49.24C31.8743 48.68 31.9877 48.19 32.2143 47.77C32.441 47.3433 32.751 47.0133 33.1443 46.78C33.5443 46.5467 33.9877 46.43 34.4743 46.43C34.9543 46.43 35.371 46.5333 35.7243 46.74C36.0777 46.9467 36.341 47.2067 36.5143 47.52V46.52H37.4343V52H36.5143V50.98C36.3343 51.3 36.0643 51.5667 35.7043 51.78C35.351 51.9867 34.9377 52.09 34.4643 52.09C33.9777 52.09 33.5377 51.97 33.1443 51.73C32.751 51.49 32.441 51.1533 32.2143 50.72C31.9877 50.2867 31.8743 49.7933 31.8743 49.24ZM36.5143 49.25C36.5143 48.8367 36.431 48.4767 36.2643 48.17C36.0977 47.8633 35.871 47.63 35.5843 47.47C35.3043 47.3033 34.9943 47.22 34.6543 47.22C34.3143 47.22 34.0043 47.3 33.7243 47.46C33.4443 47.62 33.221 47.8533 33.0543 48.16C32.8877 48.4667 32.8043 48.8267 32.8043 49.24C32.8043 49.66 32.8877 50.0267 33.0543 50.34C33.221 50.6467 33.4443 50.8833 33.7243 51.05C34.0043 51.21 34.3143 51.29 34.6543 51.29C34.9943 51.29 35.3043 51.21 35.5843 51.05C35.871 50.8833 36.0977 50.6467 36.2643 50.34C36.431 50.0267 36.5143 49.6633 36.5143 49.25ZM39.4421 45.63C39.2688 45.63 39.1221 45.57 39.0021 45.45C38.8821 45.33 38.8221 45.1833 38.8221 45.01C38.8221 44.8367 38.8821 44.69 39.0021 44.57C39.1221 44.45 39.2688 44.39 39.4421 44.39C39.6088 44.39 39.7488 44.45 39.8621 44.57C39.9821 44.69 40.0421 44.8367 40.0421 45.01C40.0421 45.1833 39.9821 45.33 39.8621 45.45C39.7488 45.57 39.6088 45.63 39.4421 45.63ZM39.8821 46.52V52H38.9721V46.52H39.8821ZM42.3431 44.6V52H41.4331V44.6H42.3431ZM43.554 49.24C43.554 48.68 43.6674 48.19 43.894 47.77C44.1207 47.3433 44.4307 47.0133 44.824 46.78C45.224 46.5467 45.6674 46.43 46.154 46.43C46.634 46.43 47.0507 46.5333 47.404 46.74C47.7574 46.9467 48.0207 47.2067 48.194 47.52V46.52H49.114V52H48.194V50.98C48.014 51.3 47.744 51.5667 47.384 51.78C47.0307 51.9867 46.6174 52.09 46.144 52.09C45.6574 52.09 45.2174 51.97 44.824 51.73C44.4307 51.49 44.1207 51.1533 43.894 50.72C43.6674 50.2867 43.554 49.7933 43.554 49.24ZM48.194 49.25C48.194 48.8367 48.1107 48.4767 47.944 48.17C47.7774 47.8633 47.5507 47.63 47.264 47.47C46.984 47.3033 46.674 47.22 46.334 47.22C45.994 47.22 45.684 47.3 45.404 47.46C45.124 47.62 44.9007 47.8533 44.734 48.16C44.5674 48.4667 44.484 48.8267 44.484 49.24C44.484 49.66 44.5674 50.0267 44.734 50.34C44.9007 50.6467 45.124 50.8833 45.404 51.05C45.684 51.21 45.994 51.29 46.334 51.29C46.674 51.29 46.984 51.21 47.264 51.05C47.5507 50.8833 47.7774 50.6467 47.944 50.34C48.1107 50.0267 48.194 49.6633 48.194 49.25ZM51.5618 47.54C51.7485 47.2133 52.0218 46.9467 52.3818 46.74C52.7418 46.5333 53.1518 46.43 53.6118 46.43C54.1052 46.43 54.5485 46.5467 54.9418 46.78C55.3352 47.0133 55.6452 47.3433 55.8718 47.77C56.0985 48.19 56.2118 48.68 56.2118 49.24C56.2118 49.7933 56.0985 50.2867 55.8718 50.72C55.6452 51.1533 55.3318 51.49 54.9318 51.73C54.5385 51.97 54.0985 52.09 53.6118 52.09C53.1385 52.09 52.7218 51.9867 52.3618 51.78C52.0085 51.5733 51.7418 51.31 51.5618 50.99V52H50.6518V44.6H51.5618V47.54ZM55.2818 49.24C55.2818 48.8267 55.1985 48.4667 55.0318 48.16C54.8652 47.8533 54.6385 47.62 54.3518 47.46C54.0718 47.3 53.7618 47.22 53.4218 47.22C53.0885 47.22 52.7785 47.3033 52.4918 47.47C52.2118 47.63 51.9852 47.8667 51.8118 48.18C51.6452 48.4867 51.5618 48.8433 51.5618 49.25C51.5618 49.6633 51.6452 50.0267 51.8118 50.34C51.9852 50.6467 52.2118 50.8833 52.4918 51.05C52.7785 51.21 53.0885 51.29 53.4218 51.29C53.7618 51.29 54.0718 51.21 54.3518 51.05C54.6385 50.8833 54.8652 50.6467 55.0318 50.34C55.1985 50.0267 55.2818 49.66 55.2818 49.24ZM58.3196 44.6V52H57.4096V44.6H58.3196ZM64.8706 49.05C64.8706 49.2233 64.8606 49.4067 64.8406 49.6H60.4606C60.4939 50.14 60.6773 50.5633 61.0106 50.87C61.3506 51.17 61.7606 51.32 62.2406 51.32C62.6339 51.32 62.9606 51.23 63.2206 51.05C63.4873 50.8633 63.6739 50.6167 63.7806 50.31H64.7606C64.6139 50.8367 64.3206 51.2667 63.8806 51.6C63.4406 51.9267 62.8939 52.09 62.2406 52.09C61.7206 52.09 61.2539 51.9733 60.8406 51.74C60.4339 51.5067 60.1139 51.1767 59.8806 50.75C59.6473 50.3167 59.5306 49.8167 59.5306 49.25C59.5306 48.6833 59.6439 48.1867 59.8706 47.76C60.0973 47.3333 60.4139 47.0067 60.8206 46.78C61.2339 46.5467 61.7073 46.43 62.2406 46.43C62.7606 46.43 63.2206 46.5433 63.6206 46.77C64.0206 46.9967 64.3273 47.31 64.5406 47.71C64.7606 48.1033 64.8706 48.55 64.8706 49.05ZM63.9306 48.86C63.9306 48.5133 63.8539 48.2167 63.7006 47.97C63.5473 47.7167 63.3373 47.5267 63.0706 47.4C62.8106 47.2667 62.5206 47.2 62.2006 47.2C61.7406 47.2 61.3473 47.3467 61.0206 47.64C60.7006 47.9333 60.5173 48.34 60.4706 48.86H63.9306Z" fill="#808080"/>
</svg>
