<svg width="69" height="82" viewBox="0 0 69 82" fill="none" xmlns="http://www.w3.org/2000/svg">
<mask id="mask0_7162_77828" style="mask-type:luminance" maskUnits="userSpaceOnUse" x="0" y="30" width="69" height="52">
<path d="M0 82H68.3339V30.7496H0V82Z" fill="white"/>
</mask>
<g mask="url(#mask0_7162_77828)">
<path d="M8.54108 81.1484C4.30158 81.1484 0.853516 77.6997 0.853516 73.4609V8.54367C0.853516 4.30475 4.30158 0.856105 8.54108 0.856105H49.1878L67.4791 19.1474V73.4609C67.4791 77.6997 64.0304 81.1484 59.7915 81.1484H8.54108Z" fill="#F6F6F6"/>
<path d="M49.5421 -0.000672817H8.54174C3.82376 -0.000672817 0 3.8238 0 8.54106V73.4583C0 78.1756 3.82376 82 8.54174 82H59.7922C64.5101 82 68.3339 78.1756 68.3339 73.4583V18.7911L49.5421 -0.000672817ZM48.8346 1.70767L66.6255 19.4986V73.4583C66.6255 77.226 63.5613 80.2917 59.7922 80.2917H8.54174C4.77336 80.2917 1.70835 77.226 1.70835 73.4583V8.54106C1.70835 4.7733 4.77336 1.70767 8.54174 1.70767H48.8346Z" fill="#D84953"/>
</g>
<mask id="mask1_7162_77828" style="mask-type:luminance" maskUnits="userSpaceOnUse" x="-1" y="0" width="70" height="31">
<path d="M-0.00012207 30.75H68.3338V0.000427975H-0.00012207V30.75Z" fill="white"/>
</mask>
<g mask="url(#mask1_7162_77828)">
<path d="M8.54083 81.1484C4.30133 81.1484 0.853271 77.6997 0.853271 73.4609V8.54367C0.853271 4.30423 4.30133 0.856105 8.54083 0.856105H49.1875L67.4788 19.1474V73.4609C67.4788 77.6997 64.0302 81.1484 59.7913 81.1484H8.54083Z" fill="#D84953"/>
<path d="M49.5418 -0.000672817H8.54149C3.82352 -0.000672817 -0.000244141 3.8238 -0.000244141 8.54106V73.4583C-0.000244141 78.1756 3.82352 82 8.54149 82H59.7919C64.5099 82 68.3336 78.1756 68.3336 73.4583V18.7911L49.5418 -0.000672817ZM48.8344 1.70767L66.6253 19.4986V73.4583C66.6253 77.226 63.561 80.2917 59.7919 80.2917H8.54149C4.77312 80.2917 1.7081 77.226 1.7081 73.4583V8.54106C1.7081 4.7733 4.77312 1.70767 8.54149 1.70767H48.8344Z" fill="#C4434C"/>
</g>
<mask id="mask2_7162_77828" style="mask-type:luminance" maskUnits="userSpaceOnUse" x="-1" y="0" width="70" height="31">
<path d="M-0.00012207 30.75H68.3338V0.000427975H-0.00012207V30.75Z" fill="white"/>
</mask>
<g mask="url(#mask2_7162_77828)">
<mask id="mask3_7162_77828" style="mask-type:luminance" maskUnits="userSpaceOnUse" x="-1" y="0" width="70" height="82">
<path d="M68.3318 73.4583C68.3318 78.1756 64.508 82 59.7901 82H8.53966C3.82168 82 -0.0020752 78.1756 -0.0020752 73.4583V8.54106C-0.0020752 3.8238 3.82168 -0.000672817 8.53966 -0.000672817H49.54L68.3318 18.7911V73.4583Z" fill="white"/>
</mask>
<g mask="url(#mask3_7162_77828)">
<path d="M51.9961 16.23L68.5312 32.7656V16.23H51.9961Z" fill="#C4434C"/>
<path d="M68.3328 18.7891H58.0828C53.3648 18.7891 49.541 14.9646 49.541 10.2473V-0.00275835H68.3328V18.7891Z" fill="#ECA4A9"/>
</g>
</g>
<path d="M25.4817 53.1568C25.4817 54.0018 25.2824 54.7991 24.8838 55.5485C24.4852 56.2978 23.8474 56.9117 22.9705 57.39C22.0935 57.8524 20.9694 58.0836 19.5982 58.0836H16.5847V64.8281H13.8582V48.206H19.5982C20.8738 48.206 21.95 48.4293 22.827 48.8757C23.7198 49.3062 24.3815 49.8962 24.812 50.6455C25.2585 51.3949 25.4817 52.232 25.4817 53.1568ZM19.5982 55.8594C20.6346 55.8594 21.4079 55.6282 21.9181 55.1658C22.4283 54.6875 22.6835 54.0178 22.6835 53.1568C22.6835 51.3391 21.655 50.4303 19.5982 50.4303H16.5847V55.8594H19.5982ZM33.5112 48.206C35.281 48.206 36.8276 48.5488 38.151 49.2345C39.4903 49.9041 40.5187 50.8767 41.2362 52.1523C41.9697 53.4119 42.3364 54.8868 42.3364 56.5769C42.3364 58.267 41.9697 59.7339 41.2362 60.9775C40.5187 62.2212 39.4903 63.1779 38.151 63.8475C36.8276 64.5013 35.281 64.8281 33.5112 64.8281H28.0821V48.206H33.5112ZM33.5112 62.6039C35.4564 62.6039 36.9472 62.0777 37.9836 61.0254C39.02 59.973 39.5382 58.4902 39.5382 56.5769C39.5382 54.6476 39.02 53.1408 37.9836 52.0566C36.9472 50.9724 35.4564 50.4303 33.5112 50.4303H30.8086V62.6039H33.5112ZM54.8205 48.206V50.4303H47.7651V55.3332H53.266V57.5575H47.7651V64.8281H45.0386V48.206H54.8205Z" fill="#D84953" fill-opacity="0.5"/>
</svg>
