<svg width="24" height="24" viewBox="0 0 24 24" fill="none" xmlns="http://www.w3.org/2000/svg">
<g id="message / phone">
<path id="Vector (Stroke)" fill-rule="evenodd" clip-rule="evenodd" d="M11.0059 15.6337L13.0129 13.6266C13.45 13.1896 14.0409 12.938 14.659 12.931C15.278 12.9241 15.8736 13.1636 16.3116 13.6016L18.6965 15.9865C19.209 16.499 19.209 17.33 18.6965 17.8426C17.7052 18.8338 16.2899 19.3462 14.8806 19.0885C14.3389 18.9894 13.7533 18.8669 13.3392 18.733C12.6166 18.4994 11.8586 18.2476 10.5854 17.235C10.0069 16.775 9.32451 16.1604 8.4876 15.3235C7.6507 14.4866 7.03614 13.8042 6.57611 13.2258C5.56351 11.9525 5.31176 11.1946 5.07813 10.4719C4.94424 10.0578 4.82169 9.47227 4.72263 8.93055C4.46493 7.52123 4.97732 6.1059 5.96853 5.11469C6.4811 4.60212 7.31213 4.60212 7.82469 5.11469L10.2095 7.49951C10.6475 7.93752 10.8871 8.53319 10.8801 9.15215C10.8732 9.77022 10.6215 10.3612 10.1845 10.7982L8.17747 12.8052C8.53766 13.2205 8.98588 13.7005 9.54826 14.2629C10.1106 14.8253 10.5906 15.2735 11.0059 15.6337ZM7.25023 11.6112L9.12383 9.73756C9.28705 9.57434 9.37771 9.3567 9.3802 9.13529C9.38268 8.91478 9.29777 8.70909 9.14885 8.56017L6.90056 6.31187C6.31209 6.97509 6.04822 7.84072 6.19817 8.66073C6.29649 9.19843 6.40459 9.69871 6.50539 10.0105L6.51295 10.0339C6.66276 10.4975 6.80734 10.9448 7.25023 11.6112ZM12.2 16.5609C12.8663 17.0038 13.3137 17.1484 13.7773 17.2982C13.7851 17.3007 13.7929 17.3032 13.8007 17.3058C14.1124 17.4066 14.6127 17.5147 15.1504 17.613C15.9704 17.7629 16.8361 17.4991 17.4993 16.9106L15.251 14.6623C15.1021 14.5134 14.8964 14.4285 14.6758 14.4309C14.4544 14.4334 14.2368 14.5241 14.0736 14.6873L12.2 16.5609Z" fill="#333333"/>
</g>
</svg>
