<svg xmlns="http://www.w3.org/2000/svg" width="167" height="124" viewBox="0 0 167 124" fill="none">
  <g clip-path="url(#clip0_718_29529)">
    <path d="M60.9873 0H79.7286L102.669 28.6378L80.1369 59.1615H60.9873L83.9279 29.571L60.9873 0Z" fill="white"/>
    <path d="M89.8379 0H108.56L131.5 28.6378L108.987 59.1615H89.8379L112.779 29.571L89.8379 0Z" fill="white"/>
    <path d="M58.8875 3.36353L19.3052 53.8928L31.3004 67.5799L49.4196 44.2108L60.9871 59.1616L69.5607 48.1186L58.4598 31.5736L69.5607 18.1004L58.8875 3.36353Z" fill="white"/>
    <path d="M6.49339 110.216H0.427734V83.0751H6.49339V110.216ZM12.8896 102.147H2.56627V96.7232H13.1423C14.5421 96.7232 15.5141 96.451 16.0585 95.8872C16.6028 95.3234 16.8556 94.2541 16.8556 92.6404C16.8556 91.0268 16.5834 89.8991 16.0585 89.3548C15.5336 88.8104 14.5421 88.5382 13.1423 88.5382H2.56627V83.0751H12.8896C14.6834 83.0481 16.4594 83.4339 18.0804 84.2027C19.5514 84.9255 20.7806 86.0603 21.6187 87.4689C22.4741 88.8882 22.9018 90.6185 22.9018 92.6404C22.9018 94.6624 22.4741 96.3733 21.6187 97.7925C20.7857 99.2005 19.5545 100.33 18.0804 101.039C16.4578 101.801 14.6819 102.181 12.8896 102.147Z" fill="white"/>
    <path d="M31.4753 110.216H25.4097V83.075H37.8715C40.0295 83.075 41.8569 83.4055 43.3539 84.047C44.7594 84.6087 45.9553 85.594 46.7756 86.8661C47.5726 88.0909 47.9615 89.588 47.9615 91.3377C47.9894 92.6398 47.7374 93.9326 47.2227 95.1289C46.7583 96.1783 45.9763 97.0555 44.987 97.6369C43.976 98.2396 42.6735 98.6284 41.1182 98.7839V99.1922C42.2846 99.5422 43.1984 100.067 43.8594 100.767C44.5931 101.547 45.197 102.44 45.648 103.411L49.0891 110.216H42.0125L38.8047 103.936C38.4687 103.26 38.0717 102.615 37.6187 102.011C37.254 101.526 36.7632 101.149 36.1995 100.923C35.6357 100.689 34.8775 100.573 33.9055 100.573H31.4753V110.216ZM31.4753 88.5381V95.5566H38.1631C39.5823 95.5566 40.5738 95.2844 41.1182 94.7789C41.6625 94.2734 41.9347 93.3402 41.9347 92.0182C41.9347 90.6961 41.6625 89.8213 41.1182 89.3158C40.5738 88.8103 39.5823 88.5381 38.1631 88.5381H31.4753Z" fill="white"/>
    <path d="M63.1837 110.605C60.462 110.605 58.129 110.041 56.2043 108.894C54.2666 107.751 52.7108 106.059 51.7328 104.033C50.6636 101.934 50.1387 99.4839 50.1387 96.6454C50.1387 93.8069 50.6636 91.3378 51.7328 89.2575C52.7108 87.2314 54.2666 85.5402 56.2043 84.3971C58.129 83.25 60.462 82.6667 63.1837 82.6667C65.9055 82.6667 68.1996 83.25 70.1437 84.3971C72.0858 85.5346 73.6431 87.2274 74.6152 89.2575C75.665 91.3378 76.1899 93.8069 76.1899 96.6454C76.1899 99.4839 75.665 101.934 74.6152 104.033C73.6431 106.063 72.0858 107.756 70.1437 108.894C68.1996 110.041 65.886 110.605 63.1837 110.605ZM63.1837 104.733C64.7196 104.733 65.9638 104.5 66.9359 104.033C67.9079 103.567 68.5884 102.731 69.0355 101.564C69.4827 100.398 69.6965 98.7451 69.6965 96.6454C69.6965 94.5457 69.4827 92.8543 69.0355 91.7072C68.5884 90.5601 67.8885 89.7241 66.9359 89.2575C65.9833 88.7909 64.7196 88.5382 63.1837 88.5382C61.6479 88.5382 60.3647 88.7715 59.3927 89.2575C58.4206 89.7436 57.7402 90.5407 57.293 91.7072C56.8459 92.8737 56.632 94.5068 56.632 96.6454C56.632 98.784 56.8459 100.398 57.293 101.564C57.7402 102.731 58.4401 103.567 59.3927 104.033C60.3453 104.5 61.609 104.733 63.1837 104.733Z" fill="white"/>
    <path d="M85.1329 110.216H79.0479V83.075H85.1329V110.216ZM89.4295 110.216H80.7198V104.733H89.3322C91.1792 104.733 92.6373 104.519 93.7454 104.072C94.293 103.851 94.7904 103.522 95.2079 103.104C95.6255 102.687 95.9546 102.189 96.1756 101.642C96.7005 100.475 96.9532 98.8034 96.9532 96.6453C96.9532 94.4873 96.7005 92.8153 96.1756 91.6488C95.9575 91.0995 95.6295 90.6005 95.2116 90.1826C94.7937 89.7647 94.2947 89.4366 93.7454 89.2186C92.6373 88.7714 91.1792 88.5381 89.3322 88.5381H80.7198V83.075H89.4295C92.3456 83.075 94.8341 83.6193 96.9338 84.6886C98.9704 85.7351 100.654 87.3579 101.775 89.3547C102.902 91.3766 103.466 93.8068 103.466 96.6453C103.466 99.4839 102.902 101.914 101.775 103.936C100.658 105.931 98.9731 107.549 96.9338 108.583C94.8341 109.671 92.3456 110.216 89.4295 110.216Z" fill="white"/>
    <path d="M112.254 110.216H106.188V83.075H112.254V110.216Z" fill="white"/>
    <path d="M127.068 110.605C124.482 110.605 122.305 110.06 120.516 108.933C118.728 107.805 117.386 106.211 116.453 104.111C115.52 102.011 115.053 99.5228 115.053 96.6454C115.053 93.768 115.578 91.3378 116.628 89.2575C117.622 87.224 119.199 85.5321 121.158 84.3971C123.141 83.25 125.493 82.6667 128.254 82.6667C131.014 82.6667 133.211 83.0945 135.058 83.9499C136.905 84.8054 138.285 85.9913 139.219 87.5272C140.152 89.0631 140.638 90.9295 140.638 93.0876V93.282H134.203V93.1265C134.203 91.3961 133.736 90.1907 132.822 89.5297C131.909 88.8687 130.334 88.5382 128.137 88.5382C126.582 88.5382 125.338 88.7715 124.366 89.2381C123.394 89.7047 122.674 90.5018 122.227 91.6878C121.78 92.8737 121.527 94.5068 121.527 96.6454C121.527 98.784 121.78 100.475 122.266 101.661C122.752 102.847 123.51 103.683 124.56 104.131C125.61 104.578 126.99 104.83 128.701 104.83C129.876 104.852 131.05 104.741 132.2 104.5C133.095 104.286 133.775 103.878 134.222 103.275C134.669 102.672 134.883 101.836 134.883 100.728V98.9007H140.716V99.5228L135.544 106.075H134.844C134.533 106.844 134.093 107.554 133.542 108.174C132.853 108.936 132.003 109.534 131.053 109.924C129.984 110.391 128.662 110.605 127.068 110.605ZM140.716 100.845H127.476V95.79H140.716V100.845ZM140.716 110.216H135.097V102.886L134.883 102.4V96.5288H140.716V110.216Z" fill="white"/>
    <path d="M156.113 100.942H150.689L139.782 83.075H146.684L150.922 90.2101L153.274 94.2151H153.683L155.996 90.2101L160.234 83.075H167L156.113 100.942ZM156.424 110.216H150.358V97.0147H156.424V110.216Z" fill="white"/>
    <path d="M0.699882 123.883H0V117.273H0.9915L2.85786 121.375L3.46054 122.814H3.51886L4.10209 121.375L5.94901 117.273H6.95995V123.883H6.26007V118.362H6.24063L5.79348 119.315L3.88824 123.495H3.03283L1.12759 119.315L0.719324 118.362H0.661L0.699882 119.315V123.883Z" fill="white"/>
    <path d="M13.2202 123.883H12.4814L15.1643 117.273H16.1753L18.8387 123.883H18.0805L16.0392 118.945L15.6698 117.954H15.6309L15.2227 118.945L13.2202 123.883ZM17.6334 121.959H13.6674V121.317H17.6334V121.959Z" fill="white"/>
    <path d="M25.0793 123.883H24.3794V117.273H27.0623C27.4761 117.264 27.8871 117.343 28.2676 117.506C28.5919 117.635 28.8698 117.859 29.0647 118.148C29.2653 118.461 29.3669 118.827 29.3563 119.198C29.3646 119.537 29.2842 119.872 29.123 120.17C28.9663 120.443 28.7285 120.66 28.4426 120.792C28.1158 120.953 27.7572 121.04 27.3928 121.045V121.103C27.5918 121.137 27.7752 121.232 27.9177 121.375C28.0838 121.525 28.222 121.703 28.326 121.9L29.4535 123.883H28.637L27.5483 122.036C27.4589 121.861 27.3479 121.698 27.2178 121.55C27.0814 121.43 26.9229 121.338 26.7512 121.278C26.5164 121.218 26.2742 121.192 26.0319 121.2H25.0793V123.883ZM25.0793 117.915V120.598H27.1789C27.6844 120.598 28.0538 120.481 28.2871 120.267C28.5204 120.053 28.6565 119.723 28.6565 119.256C28.6565 118.79 28.5398 118.459 28.2871 118.245C28.0343 118.031 27.6844 117.915 27.1789 117.915H25.0793Z" fill="white"/>
    <path d="M35.7912 123.883H35.0913V117.273H35.7912V123.883Z" fill="white"/>
    <path d="M42.7126 123.883H42.0127V117.273H42.7709L45.7454 121.686L46.4453 122.717H46.5036V117.273H47.2035V123.883H46.4453L43.4513 119.49L42.7515 118.479H42.7126V123.883Z" fill="white"/>
    <path d="M54.1242 123.883H53.4243V117.273H54.1242V123.883ZM57.8569 117.915H53.6576V117.273H57.8569V117.915ZM57.7208 120.889H53.6576V120.228H57.7208V120.889ZM57.8569 123.883H53.6576V123.242H57.8569V123.883Z" fill="white"/>
    <path d="M73.06 123.981C72.5452 123.999 72.0331 123.9 71.563 123.689C71.2115 123.523 70.9147 123.26 70.7076 122.931C70.5227 122.619 70.4284 122.263 70.4354 121.9V121.745H71.1353V121.842C71.1285 122.112 71.1886 122.379 71.3103 122.62C71.4374 122.865 71.6528 123.052 71.913 123.145C72.294 123.276 72.6961 123.335 73.0989 123.32C73.6432 123.32 74.032 123.242 74.3042 123.047C74.4332 122.951 74.5362 122.824 74.6041 122.678C74.6719 122.533 74.7025 122.372 74.693 122.211C74.7057 122.002 74.6585 121.793 74.557 121.609C74.4728 121.434 74.3276 121.295 74.1487 121.22C73.894 121.104 73.6264 121.019 73.3516 120.967L72.2046 120.714C71.8859 120.658 71.5777 120.553 71.2908 120.403C71.046 120.269 70.8388 120.075 70.6882 119.84C70.5311 119.576 70.4566 119.271 70.4743 118.965C70.4679 118.648 70.5559 118.337 70.727 118.07C70.9237 117.783 71.201 117.559 71.5241 117.429C71.9327 117.244 72.3787 117.158 72.8267 117.176C73.3125 117.155 73.7954 117.262 74.2265 117.487C74.5723 117.656 74.8575 117.928 75.043 118.265C75.2109 118.582 75.2977 118.936 75.2957 119.295V119.431H74.5764V119.315C74.5796 119.041 74.5266 118.77 74.4209 118.518C74.2981 118.288 74.0985 118.109 73.8571 118.012C73.5223 117.884 73.1654 117.825 72.8072 117.837C72.2629 117.837 71.8546 117.915 71.5825 118.109C71.4553 118.198 71.3529 118.318 71.2849 118.457C71.2168 118.597 71.1854 118.751 71.1936 118.906C71.1832 119.114 71.2232 119.321 71.3103 119.509C71.4102 119.67 71.5606 119.793 71.738 119.859C71.988 119.969 72.2486 120.054 72.5156 120.112L73.6432 120.384C73.9769 120.441 74.2988 120.552 74.5958 120.714C74.8359 120.857 75.0364 121.058 75.1791 121.298C75.3362 121.561 75.4107 121.866 75.3929 122.173C75.3997 122.495 75.3119 122.813 75.1402 123.086C74.9524 123.379 74.6817 123.609 74.3625 123.747C73.9495 123.915 73.5057 123.995 73.06 123.981Z" fill="white"/>
    <path d="M84.0055 123.981C83.4531 123.991 82.9083 123.85 82.4307 123.572C81.9696 123.286 81.5989 122.875 81.3615 122.386C81.1181 121.818 80.9927 121.206 80.9927 120.588C80.9927 119.97 81.1181 119.358 81.3615 118.79C81.5872 118.294 81.9606 117.879 82.4307 117.604C82.9118 117.324 83.4586 117.176 84.0152 117.176C84.5719 117.176 85.1186 117.324 85.5997 117.604C86.0594 117.886 86.4248 118.299 86.6495 118.79C86.8928 119.358 87.0183 119.97 87.0183 120.588C87.0183 121.206 86.8928 121.818 86.6495 122.386C86.4178 122.885 86.0423 123.304 85.5712 123.588C85.1001 123.872 84.5549 124.008 84.0055 123.981ZM84.0055 123.281C84.4515 123.299 84.8945 123.199 85.2886 122.989C85.6315 122.786 85.8928 122.47 86.0274 122.095C86.2064 121.61 86.2922 121.095 86.2801 120.578C86.2886 120.062 86.2029 119.548 86.0274 119.062C85.8928 118.687 85.6315 118.37 85.2886 118.167C84.8945 117.958 84.4515 117.857 84.0055 117.876C83.5599 117.862 83.1181 117.962 82.7224 118.167C82.3795 118.37 82.1182 118.687 81.9836 119.062C81.7988 119.545 81.7128 120.061 81.7309 120.578C81.709 121.096 81.7951 121.612 81.9836 122.095C82.1182 122.47 82.3795 122.786 82.7224 122.989C83.1181 123.194 83.5599 123.295 84.0055 123.281Z" fill="white"/>
    <path d="M93.59 123.883H92.8901V117.273H93.59V123.883ZM97.2061 123.883H93.104V123.242H97.2061V123.883Z" fill="white"/>
    <path d="M105.527 123.981C105.017 123.994 104.511 123.888 104.05 123.67C103.647 123.459 103.316 123.134 103.097 122.736C102.865 122.286 102.752 121.784 102.766 121.278V117.273H103.486V121.278C103.467 121.67 103.533 122.062 103.68 122.425C103.81 122.721 104.046 122.957 104.341 123.086C104.718 123.235 105.122 123.301 105.527 123.281C105.919 123.298 106.31 123.232 106.674 123.086C106.97 122.957 107.206 122.721 107.335 122.425C107.482 122.062 107.549 121.67 107.53 121.278V117.273H108.249V121.278C108.264 121.784 108.15 122.286 107.918 122.736C107.704 123.138 107.372 123.464 106.966 123.67C106.518 123.888 106.025 123.995 105.527 123.981Z" fill="white"/>
    <path d="M119.194 117.915H113.809V117.273H119.194V117.915ZM116.842 123.883H116.142V117.273H116.842V123.883Z" fill="white"/>
    <path d="M125.454 123.883H124.754V117.273H125.454V123.883Z" fill="white"/>
    <path d="M134.339 123.981C133.787 123.991 133.242 123.85 132.764 123.572C132.303 123.286 131.932 122.875 131.695 122.386C131.452 121.818 131.326 121.206 131.326 120.588C131.326 119.97 131.452 119.358 131.695 118.79C131.921 118.294 132.294 117.879 132.764 117.604C133.245 117.324 133.792 117.176 134.349 117.176C134.905 117.176 135.452 117.324 135.933 117.604C136.393 117.886 136.758 118.299 136.983 118.79C137.226 119.358 137.352 119.97 137.352 120.588C137.352 121.206 137.226 121.818 136.983 122.386C136.747 122.87 136.384 123.28 135.933 123.572C135.45 123.853 134.898 123.994 134.339 123.981ZM134.339 123.281C134.785 123.299 135.228 123.199 135.622 122.989C135.965 122.786 136.226 122.47 136.361 122.095C136.54 121.61 136.626 121.095 136.614 120.578C136.622 120.062 136.536 119.548 136.361 119.062C136.226 118.687 135.965 118.37 135.622 118.167C135.228 117.958 134.785 117.857 134.339 117.876C133.893 117.862 133.452 117.962 133.056 118.167C132.712 118.374 132.445 118.688 132.298 119.062C132.13 119.549 132.051 120.063 132.064 120.578C132.047 121.094 132.126 121.608 132.298 122.095C132.445 122.468 132.712 122.782 133.056 122.989C133.452 123.194 133.893 123.295 134.339 123.281Z" fill="white"/>
    <path d="M143.924 123.883H143.224V117.273H143.982L146.937 121.686L147.637 122.717H147.715V117.273H148.414V123.883H147.656L144.662 119.49L143.962 118.479H143.924V123.883Z" fill="white"/>
    <path d="M156.988 123.981C156.473 123.999 155.961 123.9 155.491 123.689C155.139 123.523 154.842 123.26 154.635 122.931C154.45 122.619 154.356 122.263 154.363 121.9V121.745H155.063V121.842C155.056 122.112 155.116 122.379 155.238 122.62C155.365 122.865 155.581 123.052 155.841 123.145C156.222 123.276 156.624 123.335 157.027 123.32C157.571 123.32 157.96 123.242 158.232 123.047C158.361 122.951 158.464 122.824 158.532 122.678C158.6 122.533 158.63 122.372 158.621 122.211C158.633 122.002 158.586 121.793 158.485 121.609C158.401 121.434 158.255 121.295 158.076 121.22C157.822 121.104 157.554 121.019 157.279 120.967L156.132 120.714C155.814 120.658 155.505 120.553 155.219 120.403C154.974 120.269 154.767 120.075 154.616 119.84C154.459 119.576 154.384 119.271 154.402 118.965C154.396 118.648 154.484 118.337 154.655 118.07C154.851 117.783 155.129 117.559 155.452 117.429C155.86 117.244 156.306 117.158 156.754 117.176C157.24 117.155 157.723 117.262 158.154 117.487C158.5 117.656 158.785 117.928 158.971 118.265C159.139 118.582 159.225 118.936 159.223 119.295V119.431H158.504V119.315C158.507 119.041 158.454 118.77 158.349 118.518C158.226 118.288 158.026 118.109 157.785 118.012C157.45 117.884 157.093 117.825 156.735 117.837C156.191 117.837 155.782 117.915 155.51 118.109C155.383 118.198 155.281 118.318 155.213 118.457C155.145 118.597 155.113 118.751 155.121 118.906C155.111 119.114 155.151 119.321 155.238 119.509C155.338 119.67 155.488 119.793 155.666 119.859C155.916 119.969 156.176 120.054 156.443 120.112L157.571 120.384C157.905 120.441 158.227 120.552 158.524 120.714C158.764 120.857 158.964 121.058 159.107 121.298C159.264 121.561 159.338 121.866 159.321 122.173C159.327 122.495 159.24 122.813 159.068 123.086C158.88 123.379 158.609 123.609 158.29 123.747C157.877 123.915 157.433 123.995 156.988 123.981Z" fill="white"/>
  </g>
  <defs>
    <clipPath id="clip0_718_29529">
      <rect width="167" height="124" fill="white"/>
    </clipPath>
  </defs>
</svg>