<svg xmlns="http://www.w3.org/2000/svg" width="173" height="39" viewBox="0 0 173 39" fill="none">
  <g clip-path="url(#clip0_1302_25459)">
    <path d="M24.3965 0H35.3494L48.7749 16.5205L35.5932 34.14H24.3965L37.822 17.07L24.3965 0Z" fill="white"/>
    <path d="M41.2695 0H52.2224L65.648 16.5205L52.4662 34.14H41.2695L54.6951 17.07L41.2695 0Z" fill="white"/>
    <path d="M23.1595 1.94043L0 31.1003L7.01751 38.9999L17.6221 25.5019L24.3959 34.1399L29.3935 27.7687L22.9158 18.2205L29.3935 10.4411L23.1595 1.94043Z" fill="white"/>
    <path d="M79.0912 20.917H75.5215V5.25518H79.0912V20.917ZM82.835 16.2631H76.7927V13.1376H82.9743C83.7928 13.1376 84.3674 12.9659 84.6808 12.6568C84.9943 12.3477 85.151 11.7123 85.151 10.7677C85.151 9.82322 84.9943 9.18781 84.6808 8.8787C84.3674 8.56958 83.7928 8.41503 82.9743 8.41503H76.7927V5.25518H82.835C83.8825 5.23932 84.9195 5.46267 85.8649 5.90776C86.7253 6.32806 87.4447 6.98388 87.9371 7.79679C88.455 8.70192 88.7138 9.72881 88.6859 10.7677C88.7118 11.8119 88.4532 12.8438 87.9371 13.7558C87.4437 14.5637 86.7241 15.2137 85.8649 15.6277C84.9181 16.0669 83.8811 16.2843 82.835 16.2631Z" fill="white"/>
    <path d="M93.7007 20.9167H90.1484V5.25488H97.4446C98.7157 5.25488 99.7779 5.44379 100.649 5.82159C101.469 6.14335 102.168 6.70714 102.651 7.43586C103.135 8.21448 103.378 9.11604 103.348 10.029C103.369 10.7788 103.22 11.5239 102.912 12.21C102.645 12.8162 102.187 13.3218 101.606 13.6525C100.913 14.0422 100.139 14.2713 99.3426 14.3223V14.5627C99.9493 14.7198 100.502 15.034 100.945 15.4728C101.375 15.9163 101.728 16.4269 101.989 16.9841L104.009 20.9167H99.865L97.9844 17.2932C97.7879 16.9006 97.5547 16.5269 97.2878 16.1769C97.0733 15.9051 96.7915 15.6922 96.4694 15.5587C96.0401 15.4057 95.5848 15.3357 95.1286 15.3526H93.7007V20.9167ZM93.7007 8.41472V12.4504H97.6187C98.4545 12.4504 99.0292 12.313 99.3426 12.0039C99.656 11.6948 99.8128 11.1796 99.8128 10.424C99.8128 9.66836 99.656 9.15317 99.3426 8.86122C99.0292 8.56928 98.4545 8.41472 97.6187 8.41472H93.7007Z" fill="white"/>
    <path d="M112.246 21.1401C110.667 21.1401 109.309 20.8138 108.171 20.1612C107.038 19.4924 106.124 18.5142 105.542 17.3448C104.933 16.1427 104.619 14.7173 104.619 13.0859C104.619 11.4545 104.933 10.0291 105.542 8.82698C106.124 7.65757 107.038 6.67942 108.171 6.0106C109.309 5.35803 110.667 5.03174 112.246 5.03174C113.825 5.03174 115.183 5.35803 116.321 6.0106C117.462 6.66986 118.378 7.65065 118.95 8.82698C119.56 10.0291 119.856 11.4545 119.856 13.0859C119.856 14.7173 119.56 16.1427 118.95 17.3448C118.378 18.5211 117.462 19.5019 116.321 20.1612C115.195 20.8138 113.837 21.1401 112.246 21.1401ZM112.246 17.757C113.152 17.757 113.883 17.6196 114.44 17.3448C114.997 17.0872 115.415 16.6064 115.677 15.9195C115.938 15.2325 116.077 14.3052 116.077 13.0859C116.077 11.8666 115.938 10.9049 115.677 10.2352C115.463 9.62662 115.02 9.12239 114.44 8.82698C113.883 8.55221 113.152 8.41483 112.246 8.41483C111.341 8.41483 110.592 8.55221 110.035 8.82698C109.454 9.12239 109.012 9.62662 108.798 10.2352C108.555 10.9049 108.415 11.8494 108.415 13.0859C108.415 14.3224 108.555 15.2497 108.798 15.9195C109.042 16.5892 109.477 17.0872 110.035 17.3448C110.592 17.6024 111.341 17.757 112.246 17.757Z" fill="white"/>
    <path d="M125.097 20.9167H121.545V5.25488H125.097V20.9167ZM127.605 20.9167H122.52V17.7569H127.552C128.632 17.7569 129.485 17.6367 130.147 17.3791C130.467 17.2519 130.758 17.0613 131 16.8191C131.243 16.5769 131.433 16.2882 131.558 15.9709C131.871 15.3011 132.01 14.3394 132.01 13.0858C132.01 11.8322 131.871 10.8705 131.558 10.2007C131.43 9.88489 131.239 9.59753 130.997 9.35565C130.755 9.11377 130.466 8.92228 130.147 8.79253C129.485 8.53494 128.632 8.41472 127.552 8.41472H122.52V5.25488H127.605C129.311 5.25488 130.774 5.564 132.01 6.1994C133.202 6.79212 134.186 7.72581 134.831 8.8784C135.493 10.0462 135.824 11.4544 135.824 13.0858C135.824 14.7172 135.493 16.1254 134.831 17.2932C134.186 18.4458 133.202 19.3795 132.01 19.9722C130.774 20.6076 129.311 20.9167 127.605 20.9167Z" fill="white"/>
    <path d="M140.978 20.9167H137.408V5.25488H140.978V20.9167Z" fill="white"/>
    <path d="M149.631 21.1401C148.116 21.1401 146.845 20.8309 145.8 20.1784C144.743 19.5044 143.912 18.5362 143.414 17.3963C142.874 16.1942 142.596 14.7517 142.596 13.0859C142.596 11.4201 142.909 10.0291 143.519 8.82698C144.109 7.65174 145.035 6.67266 146.183 6.0106C147.332 5.35803 148.708 5.03174 150.327 5.03174C151.947 5.03174 153.235 5.27216 154.315 5.75301C155.317 6.19377 156.165 6.91665 156.753 7.83095C157.316 8.80209 157.599 9.9067 157.571 11.0251V11.1453H153.81V11.0595C153.81 10.0634 153.549 9.37652 153.009 8.98154C152.469 8.58656 151.546 8.41483 150.258 8.41483C149.5 8.39046 148.746 8.52509 148.046 8.80981C147.489 9.06741 147.071 9.54825 146.792 10.218C146.514 10.8877 146.392 11.8494 146.392 13.0859C146.392 14.3224 146.531 15.3012 146.827 15.9881C146.944 16.3013 147.123 16.5886 147.353 16.8332C147.583 17.0779 147.86 17.2751 148.168 17.4135C148.777 17.6711 149.596 17.8085 150.588 17.8085C151.278 17.8195 151.967 17.7562 152.643 17.6196C153.11 17.531 153.53 17.2814 153.827 16.9155C154.088 16.572 154.21 16.0912 154.21 15.4386V14.3911H157.623V14.7517L154.593 18.5298H154.193C154.009 18.9757 153.75 19.3879 153.427 19.749C153.017 20.1802 152.518 20.5199 151.964 20.7451C151.337 21.0198 150.571 21.1401 149.631 21.1401ZM157.623 15.5245H149.874V12.5879H157.623V15.5245ZM157.623 20.9168H154.332V16.6922L154.21 16.4003V13.0172H157.623V20.9168Z" fill="white"/>
    <path d="M166.626 15.5587H163.457L157.084 5.25488H161.106L163.597 9.37642L164.972 11.6776H165.199L166.557 9.37642L169.047 5.25488H173L166.626 15.5587ZM166.818 20.9167H163.266V13.2919H166.818V20.9167Z" fill="white"/>
    <path d="M76.1308 28.8164H75.7129V24.9868H76.3049L77.402 27.3567L77.7502 28.181H77.7676L78.1159 27.3567L79.2129 24.9868H79.7876V28.8164H79.3871V25.6222H79.3697L79.1085 26.1718L77.994 28.576H77.5064L76.392 26.1718L76.1482 25.6222H76.1134V28.8164H76.1308Z" fill="white"/>
    <path d="M83.4607 28.8164H83.0254L84.5926 24.9868H85.1846L86.7518 28.8164H86.2991L85.115 25.9485L84.8886 25.3818H84.8712L84.6274 25.9485L83.4607 28.8164ZM86.0379 27.7002H83.7219V27.3224H86.0379V27.7002Z" fill="white"/>
    <path d="M90.3927 28.8165H89.9922V24.9869H91.5594C91.7988 24.984 92.0361 25.0309 92.2559 25.1243C92.4506 25.1956 92.616 25.3284 92.7261 25.5021C92.848 25.6789 92.9091 25.8896 92.9002 26.1032C92.9039 26.3008 92.8559 26.4959 92.7609 26.6699C92.6679 26.8276 92.5281 26.9535 92.3604 27.0305C92.1686 27.1162 91.9614 27.163 91.7509 27.1679V27.2023C91.8648 27.2327 91.9713 27.2853 92.0644 27.3568C92.1535 27.4494 92.2297 27.5534 92.2907 27.6659L92.9524 28.8165H92.4823L91.838 27.7346C91.7843 27.6366 91.72 27.5445 91.6464 27.4599C91.5663 27.3887 91.4711 27.3359 91.3678 27.3053C91.2321 27.2668 91.0911 27.2494 90.9499 27.2538H90.3927V28.8165ZM90.3927 25.3647V26.9103H91.629C91.8601 26.9278 92.0895 26.8605 92.2733 26.7214C92.4189 26.5608 92.4995 26.353 92.4995 26.1375C92.4995 25.9221 92.4189 25.7142 92.2733 25.5537C92.0895 25.4146 91.8601 25.3473 91.629 25.3647H90.3927Z" fill="white"/>
    <path d="M96.6603 28.8164H96.2598V24.9868H96.6603V28.8164Z" fill="white"/>
    <path d="M100.719 28.8164H100.301V24.9868H100.754L102.495 27.5284L102.895 28.1295H102.93V24.9868H103.348V28.8164H102.895L101.154 26.2748L100.736 25.6909H100.719V28.8164Z" fill="white"/>
    <path d="M107.387 28.8164H106.969V24.9868H107.387V28.8164ZM109.581 25.3646H107.108V24.9868H109.581V25.3646ZM109.494 27.0819H107.108V26.7041H109.494V27.0819ZM109.581 28.8164H107.108V28.4386H109.581V28.8164Z" fill="white"/>
    <path d="M118.48 28.8677C118.179 28.8833 117.88 28.8242 117.609 28.6959C117.396 28.6045 117.219 28.4479 117.104 28.2494C116.987 28.077 116.926 27.8732 116.93 27.6655V27.5625H117.348V27.6312C117.343 27.7864 117.379 27.9401 117.452 28.0777C117.529 28.2173 117.652 28.3265 117.801 28.3868C118.024 28.4637 118.26 28.4987 118.497 28.4899C118.742 28.5126 118.988 28.4521 119.194 28.3181C119.271 28.2645 119.332 28.1918 119.372 28.1075C119.411 28.0231 119.428 27.9299 119.42 27.8373C119.427 27.7188 119.403 27.6004 119.35 27.4938C119.301 27.3916 119.214 27.3118 119.107 27.2706L118.654 27.116L117.975 26.9786C117.785 26.9471 117.602 26.8832 117.435 26.7897C117.291 26.7139 117.171 26.6011 117.087 26.4634C116.989 26.3155 116.941 26.1416 116.947 25.9654C116.946 25.782 117 25.6025 117.104 25.4502C117.224 25.2856 117.386 25.1553 117.574 25.0724C117.818 24.9763 118.078 24.9296 118.34 24.935C118.624 24.9214 118.906 24.9806 119.159 25.1068C119.356 25.2154 119.519 25.3759 119.629 25.5704C119.731 25.7484 119.785 25.9496 119.786 26.1543V26.2402H119.368V26.1715C119.37 26.011 119.334 25.8522 119.263 25.7078C119.193 25.574 119.075 25.4701 118.932 25.4159C118.739 25.3396 118.531 25.3045 118.323 25.3128C118.075 25.2972 117.828 25.3508 117.609 25.4674C117.533 25.5183 117.473 25.588 117.433 25.6694C117.393 25.7507 117.376 25.841 117.383 25.9311C117.373 26.0552 117.397 26.1797 117.452 26.2917C117.513 26.3768 117.598 26.4425 117.696 26.4806L118.149 26.6352L118.81 26.7897C119.006 26.8186 119.195 26.8826 119.368 26.9786C119.511 27.0545 119.632 27.1672 119.716 27.3049C119.805 27.462 119.847 27.6405 119.838 27.8201C119.835 28.006 119.787 28.1885 119.699 28.3525C119.578 28.5171 119.416 28.6474 119.228 28.7303C118.991 28.8269 118.736 28.8737 118.48 28.8677Z" fill="white"/>
    <path d="M124.887 28.8679C124.558 28.8695 124.234 28.7867 123.947 28.6274C123.683 28.4589 123.472 28.221 123.337 27.9405C123.177 27.6207 123.099 27.2667 123.111 26.9101C123.098 26.5479 123.175 26.188 123.337 25.8626C123.472 25.5821 123.683 25.3442 123.947 25.1756C124.234 25.0164 124.558 24.9336 124.887 24.9352C125.211 24.9308 125.53 25.014 125.81 25.1756C126.074 25.3442 126.285 25.5821 126.419 25.8626C126.581 26.188 126.659 26.5479 126.646 26.9101C126.658 27.2667 126.58 27.6207 126.419 27.9405C126.285 28.221 126.074 28.4589 125.81 28.6274C125.53 28.7891 125.211 28.8723 124.887 28.8679ZM124.887 28.4557C125.146 28.4653 125.403 28.4122 125.636 28.3011C125.829 28.1792 125.975 27.9982 126.054 27.786C126.165 27.5075 126.219 27.2095 126.21 26.9101C126.22 26.6051 126.167 26.3012 126.054 26.0171C125.975 25.8049 125.829 25.6239 125.636 25.5019C125.404 25.3849 125.147 25.326 124.887 25.3302C124.627 25.3238 124.369 25.3829 124.138 25.5019C123.936 25.622 123.777 25.8024 123.685 26.0171C123.587 26.3047 123.54 26.6068 123.546 26.9101C123.542 27.2078 123.589 27.504 123.685 27.786C123.777 28.0007 123.936 28.1811 124.138 28.3011C124.371 28.4136 124.628 28.4667 124.887 28.4557Z" fill="white"/>
    <path d="M130.477 28.8164H130.076V24.9868H130.477V28.8164ZM132.601 28.8164H130.198V28.4386H132.601V28.8164Z" fill="white"/>
    <path d="M137.46 28.8679C137.164 28.8726 136.872 28.8079 136.607 28.679C136.37 28.5622 136.175 28.3764 136.049 28.1467C135.917 27.8858 135.851 27.5969 135.858 27.3052V24.9868H136.276V27.3052C136.264 27.5347 136.306 27.7637 136.398 27.9749C136.43 28.0596 136.481 28.136 136.547 28.1984C136.614 28.2609 136.694 28.3077 136.781 28.3356C137.219 28.4961 137.701 28.4961 138.139 28.3356C138.225 28.3047 138.303 28.2567 138.369 28.1947C138.435 28.1326 138.487 28.0578 138.522 27.9749C138.614 27.7637 138.656 27.5347 138.644 27.3052V24.9868H139.062V27.3052C139.069 27.5969 139.003 27.8858 138.87 28.1467C138.745 28.3764 138.55 28.5622 138.313 28.679C138.048 28.8079 137.755 28.8726 137.46 28.8679Z" fill="white"/>
    <path d="M145.47 25.3646H142.318V24.9868H145.47V25.3646ZM144.095 28.8164H143.694V24.9868H144.095V28.8164Z" fill="white"/>
    <path d="M149.127 28.8164H148.727V24.9868H149.127V28.8164Z" fill="white"/>
    <path d="M154.333 28.868C154.009 28.8724 153.69 28.7893 153.41 28.6276C153.137 28.4646 152.919 28.2256 152.783 27.9407C152.634 27.6142 152.557 27.26 152.557 26.9017C152.557 26.5434 152.634 26.1893 152.783 25.8627C152.919 25.5779 153.137 25.3389 153.41 25.1758C153.692 25.0177 154.01 24.9346 154.333 24.9346C154.657 24.9346 154.975 25.0177 155.256 25.1758C155.52 25.3444 155.731 25.5823 155.866 25.8627C156.027 26.1882 156.105 26.5481 156.092 26.9103C156.104 27.2669 156.026 27.6209 155.866 27.9407C155.731 28.2212 155.52 28.4591 155.256 28.6276C154.977 28.7893 154.657 28.8724 154.333 28.868ZM154.333 28.4559C154.592 28.4669 154.849 28.4137 155.082 28.3013C155.275 28.1753 155.426 27.9961 155.517 27.7861C155.614 27.5042 155.661 27.2079 155.657 26.9103C155.663 26.607 155.615 26.3049 155.517 26.0173C155.426 25.8073 155.275 25.6282 155.082 25.5021C154.851 25.3831 154.594 25.3239 154.333 25.3304C154.073 25.3261 153.816 25.3851 153.584 25.5021C153.382 25.6222 153.223 25.8026 153.132 26.0173C153.034 26.3049 152.987 26.607 152.992 26.9103C152.988 27.2079 153.035 27.5042 153.132 27.7861C153.223 28.0008 153.382 28.1813 153.584 28.3013C153.818 28.4124 154.075 28.4654 154.333 28.4559Z" fill="white"/>
    <path d="M159.939 28.8164H159.521V24.9868H159.974L161.698 27.5284L162.116 28.1295H162.151V24.9868H162.569V28.8164H162.116L160.375 26.2748L159.957 25.6909H159.939V28.8164Z" fill="white"/>
    <path d="M167.585 28.8677C167.285 28.8811 166.986 28.8222 166.714 28.6959C166.502 28.6045 166.325 28.4479 166.209 28.2494C166.099 28.0737 166.039 27.8721 166.035 27.6655V27.5625H166.453V27.6312C166.449 27.7864 166.485 27.9401 166.558 28.0777C166.638 28.2141 166.76 28.3222 166.906 28.3868C167.129 28.4637 167.366 28.4987 167.602 28.4899C167.848 28.5126 168.093 28.4521 168.299 28.3181C168.379 28.2665 168.444 28.1948 168.487 28.1103C168.53 28.0258 168.549 27.9316 168.543 27.8373C168.545 27.7172 168.515 27.5985 168.456 27.4938C168.435 27.4438 168.404 27.3983 168.365 27.36C168.326 27.3217 168.28 27.2913 168.229 27.2706L167.759 27.116L167.08 26.9786C166.896 26.9473 166.719 26.8833 166.558 26.7897C166.405 26.7197 166.278 26.606 166.192 26.4634C166.101 26.3135 166.058 26.1398 166.07 25.9654C166.068 25.782 166.123 25.6025 166.227 25.4502C166.34 25.2863 166.497 25.1557 166.679 25.0724C166.923 24.9763 167.183 24.9296 167.446 24.935C167.729 24.9214 168.011 24.9806 168.264 25.1068C168.461 25.2154 168.624 25.3759 168.734 25.5704C168.837 25.7484 168.891 25.9496 168.891 26.1543V26.2402H168.473V26.1715C168.475 26.011 168.439 25.8522 168.369 25.7078C168.306 25.5741 168.194 25.4694 168.055 25.4159C167.861 25.341 167.654 25.306 167.446 25.3128C167.192 25.2968 166.939 25.3502 166.714 25.4674C166.639 25.5183 166.578 25.588 166.538 25.6694C166.498 25.7507 166.481 25.841 166.488 25.9311C166.478 26.0552 166.502 26.1797 166.558 26.2917C166.618 26.3768 166.703 26.4425 166.801 26.4806L167.271 26.6352L167.916 26.7897C168.112 26.8157 168.302 26.8799 168.473 26.9786C168.62 27.0497 168.742 27.1636 168.821 27.3049C168.91 27.462 168.952 27.6405 168.943 27.8201C168.948 28.0069 168.9 28.1914 168.804 28.3525C168.686 28.5128 168.531 28.6424 168.351 28.7303C168.107 28.8251 167.847 28.8718 167.585 28.8677Z" fill="white"/>
  </g>
  <defs>
    <clipPath id="clip0_1302_25459">
      <rect width="173" height="39" fill="white"/>
    </clipPath>
  </defs>
</svg>