<svg width="25" height="24" viewBox="0 0 25 24" fill="none" xmlns="http://www.w3.org/2000/svg">
<path d="M18.2812 7.28125L15.2219 4.21875C15.0813 4.07812 14.8906 4 14.6906 4H14.5V8H18.5V7.80938C18.5 7.6125 18.4219 7.42188 18.2812 7.28125ZM13.5 8.25V4H7.25C6.83437 4 6.5 4.33437 6.5 4.75V19.25C6.5 19.6656 6.83437 20 7.25 20H17.75C18.1656 20 18.5 19.6656 18.5 19.25V9H14.25C13.8375 9 13.5 8.6625 13.5 8.25ZM8.5 6.25C8.5 6.11188 8.61188 6 8.75 6H11.25C11.3881 6 11.5 6.11188 11.5 6.25V6.75C11.5 6.88812 11.3881 7 11.25 7H8.75C8.61188 7 8.5 6.88812 8.5 6.75V6.25ZM8.5 8.75V8.25C8.5 8.11188 8.61188 8 8.75 8H11.25C11.3881 8 11.5 8.11188 11.5 8.25V8.75C11.5 8.88812 11.3881 9 11.25 9H8.75C8.61188 9 8.5 8.88812 8.5 8.75ZM13 16.9963V17.75C13 17.8881 12.8881 18 12.75 18H12.25C12.1119 18 12 17.8881 12 17.75V16.9909C11.6472 16.9728 11.3041 16.8497 11.0197 16.6362C10.8978 16.5447 10.8916 16.3622 11.0019 16.2569L11.3691 15.9066C11.4556 15.8241 11.5844 15.8203 11.6856 15.8837C11.8066 15.9594 11.9437 16 12.0862 16H12.9647C13.1678 16 13.3334 15.815 13.3334 15.5878C13.3334 15.4019 13.2206 15.2381 13.0594 15.19L11.6531 14.7681C11.0722 14.5938 10.6663 14.0363 10.6663 13.4122C10.6663 12.6459 11.2616 12.0234 11.9997 12.0037V11.25C11.9997 11.1119 12.1116 11 12.2497 11H12.7497C12.8878 11 12.9997 11.1119 12.9997 11.25V12.0091C13.3525 12.0272 13.6956 12.15 13.98 12.3638C14.1019 12.4553 14.1081 12.6378 13.9978 12.7431L13.6306 13.0934C13.5441 13.1759 13.4153 13.1797 13.3141 13.1163C13.1931 13.0403 13.0559 13 12.9134 13H12.035C11.8319 13 11.6663 13.185 11.6663 13.4122C11.6663 13.5981 11.7791 13.7619 11.9403 13.81L13.3466 14.2319C13.9275 14.4062 14.3334 14.9637 14.3334 15.5878C14.3334 16.3544 13.7381 16.9766 13 16.9963Z" fill="#9D7A5A"/>
</svg>
