<svg width="21" height="21" viewBox="0 0 21 21" fill="none" xmlns="http://www.w3.org/2000/svg">
<g id="system / search">
<path id="Union" fill-rule="evenodd" clip-rule="evenodd" d="M13 9.25C13 11.3211 11.3211 13 9.25 13C7.17893 13 5.5 11.3211 5.5 9.25C5.5 7.17893 7.17893 5.5 9.25 5.5C11.3211 5.5 13 7.17893 13 9.25ZM12.3161 13.1999C11.4694 13.8581 10.4055 14.25 9.25 14.25C6.48858 14.25 4.25 12.0114 4.25 9.25C4.25 6.48858 6.48858 4.25 9.25 4.25C12.0114 4.25 14.25 6.48858 14.25 9.25C14.25 10.4054 13.8581 11.4693 13.1999 12.316L17.192 16.3081L16.3081 17.1919L12.3161 13.1999Z" fill="#56381E"/>
</g>
</svg>
