<svg width="35" height="35" viewBox="0 0 35 35" fill="none" xmlns="http://www.w3.org/2000/svg">
<rect width="35" height="35" rx="17.5" fill="#D9D9D9"/>
<path fill-rule="evenodd" clip-rule="evenodd" d="M19.75 13.1875C19.75 12.0484 20.6734 11.125 21.8125 11.125C22.9516 11.125 23.875 12.0484 23.875 13.1875C23.875 14.3266 22.9516 15.25 21.8125 15.25C20.6734 15.25 19.75 14.3266 19.75 13.1875ZM21.8125 9.75C19.914 9.75 18.375 11.289 18.375 13.1875C18.375 13.4183 18.3977 13.6438 18.4411 13.8618L14.9603 15.9679C14.3347 15.1157 13.3257 14.5625 12.1875 14.5625C10.289 14.5625 8.75 16.1015 8.75 18C8.75 19.8985 10.289 21.4375 12.1875 21.4375C13.4257 21.4375 14.511 20.7828 15.1161 19.8008L18.4547 22.0732C18.4025 22.3114 18.375 22.5587 18.375 22.8125C18.375 24.711 19.914 26.25 21.8125 26.25C23.711 26.25 25.25 24.711 25.25 22.8125C25.25 20.914 23.711 19.375 21.8125 19.375C20.6661 19.375 19.6507 19.9362 19.0262 20.7989L15.5941 18.4628C15.6145 18.3115 15.625 18.157 15.625 18C15.625 17.7338 15.5947 17.4746 15.5375 17.2258L18.9835 15.1408C19.6038 16.0375 20.6396 16.625 21.8125 16.625C23.711 16.625 25.25 15.086 25.25 13.1875C25.25 11.289 23.711 9.75 21.8125 9.75ZM19.75 22.8125C19.75 21.6734 20.6734 20.75 21.8125 20.75C22.9516 20.75 23.875 21.6734 23.875 22.8125C23.875 23.9516 22.9516 24.875 21.8125 24.875C20.6734 24.875 19.75 23.9516 19.75 22.8125ZM10.125 18C10.125 16.8609 11.0484 15.9375 12.1875 15.9375C13.3266 15.9375 14.25 16.8609 14.25 18C14.25 19.1391 13.3266 20.0625 12.1875 20.0625C11.0484 20.0625 10.125 19.1391 10.125 18Z" fill="#333333"/>
</svg>
