<svg width="38" height="38" viewBox="0 0 38 38" fill="none" xmlns="http://www.w3.org/2000/svg">
<rect width="38" height="38" rx="5" fill="#F7C088" fill-opacity="0.52"/>
<rect x="0.5" y="0.5" width="37" height="37" rx="4.5" stroke="black" stroke-opacity="0.08"/>
<path d="M8.53291 15.6732L18.1914 21.2537C18.4061 21.361 18.5134 21.361 18.728 21.361C18.9427 21.361 19.05 21.361 19.2646 21.2537L28.9232 15.6732C29.1378 15.5659 29.2451 15.4585 29.3524 15.2439C29.5671 14.7073 29.4597 14.0634 28.9232 13.7415L19.2646 8.16098C18.9427 7.94634 18.5134 7.94634 18.1914 8.16098L8.53291 13.7415C8.31828 13.8488 8.21096 13.9561 8.10364 14.1707C7.88901 14.7073 7.99632 15.3512 8.53291 15.6732ZM28.9232 18.0341L28.7085 17.9268L19.2646 23.4C18.9427 23.6146 18.5134 23.6146 18.1914 23.4L8.74754 17.9268L8.53291 18.0341C7.99632 18.3561 7.88901 19 8.10364 19.5366C8.21096 19.7512 8.31828 19.8585 8.53291 19.9659L18.1914 25.5463C18.5134 25.761 18.9427 25.761 19.2646 25.5463L28.9232 19.9659C29.4597 19.6439 29.5671 19 29.3524 18.4634C29.2451 18.2488 29.1378 18.1415 28.9232 18.0341ZM28.9232 22.3268L28.7085 22.2195L19.2646 27.6927C18.9427 27.9073 18.5134 27.9073 18.1914 27.6927L8.74754 22.2195L8.53291 22.3268C7.99632 22.6488 7.88901 23.2927 8.10364 23.8293C8.21096 24.0439 8.31828 24.1512 8.53291 24.2585L18.1914 29.839C18.5134 30.0537 18.9427 30.0537 19.2646 29.839L28.9232 24.2585C29.4597 23.9366 29.5671 23.2927 29.3524 22.7561C29.2451 22.5415 29.1378 22.4341 28.9232 22.3268Z" fill="#87694E"/>
</svg>
