<svg width="17" height="16" viewBox="0 0 17 16" fill="none" xmlns="http://www.w3.org/2000/svg">
<path d="M16.6667 6.36746C16.75 5.9508 16.4167 5.4508 16 5.4508L11.25 4.78413L9.08333 0.450795C9 0.284128 8.91667 0.200795 8.75 0.117462C8.33333 -0.132538 7.83333 0.0341284 7.58333 0.450795L5.5 4.78413L0.75 5.4508C0.5 5.4508 0.333333 5.53413 0.25 5.7008C-0.0833333 6.03413 -0.0833333 6.53413 0.25 6.86746L3.66667 10.2008L2.83333 14.9508C2.83333 15.1175 2.83333 15.2841 2.91667 15.4508C3.16667 15.8675 3.66667 16.0341 4.08333 15.7841L8.33333 13.5341L12.5833 15.7841C12.6667 15.8675 12.8333 15.8675 13 15.8675C13.0833 15.8675 13.0833 15.8675 13.1667 15.8675C13.5833 15.7841 13.9167 15.3675 13.8333 14.8675L13 10.1175L16.4167 6.78413C16.5833 6.70079 16.6667 6.53413 16.6667 6.36746Z" fill="#F6B100"/>
</svg>
