<svg width="20" height="20" viewBox="0 0 20 20" fill="none" xmlns="http://www.w3.org/2000/svg">
<path d="M18.3327 8.41434C18.416 7.99767 18.0827 7.49767 17.666 7.49767L12.916 6.831L10.7493 2.49767C10.666 2.331 10.5827 2.24767 10.416 2.16434C9.99935 1.91434 9.49935 2.081 9.24935 2.49767L7.16602 6.831L2.41602 7.49767C2.16602 7.49767 1.99935 7.581 1.91602 7.74767C1.58268 8.081 1.58268 8.581 1.91602 8.91434L5.33268 12.2477L4.49935 16.9977C4.49935 17.1643 4.49935 17.331 4.58268 17.4977C4.83268 17.9143 5.33268 18.081 5.74935 17.831L9.99935 15.581L14.2493 17.831C14.3327 17.9143 14.4993 17.9143 14.666 17.9143C14.7493 17.9143 14.7493 17.9143 14.8327 17.9143C15.2493 17.831 15.5827 17.4143 15.4993 16.9143L14.666 12.1643L18.0827 8.831C18.2493 8.74767 18.3327 8.581 18.3327 8.41434Z" fill="black" fill-opacity="0.15"/>
</svg>
