<svg xmlns="http://www.w3.org/2000/svg" width="10" height="10" viewBox="0 0 10 10" fill="none">
  <path d="M9.16732 4.20717C9.20898 3.99884 9.04232 3.74884 8.83398 3.74884L6.45898 3.4155L5.37565 1.24884C5.33398 1.1655 5.29232 1.12383 5.20898 1.08217C5.00065 0.957168 4.75065 1.0405 4.62565 1.24884L3.58398 3.4155L1.20898 3.74884C1.08398 3.74884 1.00065 3.7905 0.958984 3.87384C0.792318 4.0405 0.792318 4.2905 0.958984 4.45717L2.66732 6.12383L2.25065 8.49884C2.25065 8.58217 2.25065 8.6655 2.29232 8.74884C2.41732 8.95717 2.66732 9.0405 2.87565 8.9155L5.00065 7.7905L7.12565 8.9155C7.16732 8.95717 7.25065 8.95717 7.33398 8.95717C7.37565 8.95717 7.37565 8.95717 7.41732 8.95717C7.62565 8.9155 7.79232 8.70717 7.75065 8.45717L7.33398 6.08217L9.04232 4.4155C9.12565 4.37383 9.16732 4.2905 9.16732 4.20717Z" fill="white"/>
</svg>