<svg xmlns="http://www.w3.org/2000/svg" width="20" height="21" viewBox="0 0 20 21" fill="none">
  <path d="M13.4688 13.479C16.7099 9.88766 15.9984 3.06624 15.9984 3.06624C15.9984 3.06624 9.17706 2.35471 5.5856 5.59577C2.93411 7.98858 2.94656 10.7016 3.97512 12.9682C4.01959 12.9045 4.06422 12.8408 4.10959 12.7758C4.22524 12.6045 4.35934 12.4398 4.48782 12.2658C4.61802 12.0929 4.74994 11.9159 4.89484 11.7444C5.03682 11.5711 5.18142 11.3952 5.32767 11.2169C5.4806 11.0451 5.63547 10.871 5.79162 10.6956C5.86977 10.6085 5.94837 10.521 6.0272 10.4331C6.10932 10.3484 6.19182 10.2636 6.2744 10.1785C6.43962 10.0091 6.60545 9.83899 6.7712 9.66904C6.94385 9.50629 7.11688 9.34383 7.28878 9.18176C7.37488 9.10106 7.4606 9.02043 7.54618 8.94018C7.6322 8.86053 7.72348 8.78658 7.81123 8.71023C8.16546 8.40746 8.50806 8.10468 8.86371 7.84031C9.03824 7.70501 9.20991 7.57195 9.37799 7.44175C9.54651 7.31283 9.72111 7.19883 9.88559 7.0816C10.2177 6.85097 10.5258 6.62688 10.8292 6.44717C10.879 6.41627 10.9441 6.4297 10.9777 6.47777C11.011 6.52585 11.001 6.59162 10.9547 6.62755C10.9524 6.62935 10.9501 6.63115 10.948 6.6328C10.6649 6.84422 10.3807 7.09968 10.0744 7.36413C9.92286 7.498 9.76154 7.62978 9.60674 7.7755C9.45299 7.92243 9.29586 8.07258 9.13633 8.2252C8.81046 8.52483 8.50003 8.86053 8.17925 9.19751C8.0999 9.28226 8.01748 9.36536 7.9394 9.45266C7.86268 9.54101 7.78565 9.62973 7.7084 9.71861C7.5539 9.89673 7.3991 10.0754 7.24393 10.2542C7.09648 10.4394 6.94925 10.6248 6.80225 10.8093C6.7289 10.9018 6.65555 10.9941 6.58265 11.0862C6.51328 11.181 6.44413 11.2755 6.37505 11.3697C6.2378 11.5587 6.10182 11.7462 5.9672 11.9319C5.84015 12.1225 5.71452 12.3111 5.59115 12.4967C5.46462 12.6804 5.35144 12.8684 5.23962 13.0521C5.12959 13.2369 5.01379 13.4127 4.91577 13.5932C4.81549 13.7726 4.71807 13.9469 4.62387 14.1155C4.53057 14.2851 4.44874 14.4541 4.36579 14.6138C4.32492 14.6941 4.28479 14.7725 4.24557 14.8493C4.20912 14.9278 4.17349 15.0045 4.13847 15.0791C4.06969 15.2292 4.00129 15.3696 3.94256 15.5053C3.82774 15.7795 3.72559 16.0114 3.64879 16.2292C3.61009 16.3341 3.57566 16.4278 3.54551 16.5093C3.52121 16.5836 3.50029 16.6468 3.48349 16.6981C3.44974 16.8008 3.43167 16.8555 3.43167 16.8555C3.42702 16.8699 3.42199 16.8871 3.41802 16.9018C3.29299 17.3667 3.56869 17.8451 4.03384 17.97C4.49892 18.0948 4.97689 17.819 5.10207 17.3542L5.10289 17.3511C5.10289 17.3511 5.1179 17.2954 5.14572 17.1911C5.15982 17.1391 5.177 17.0747 5.19732 16.999C5.21802 16.9324 5.2421 16.8561 5.2688 16.7704C5.3162 16.6045 5.39907 16.3832 5.48727 16.1344C5.53295 16.0096 5.5886 15.8782 5.6432 15.7386C5.67117 15.669 5.6999 15.5974 5.729 15.5243C5.7611 15.452 5.79387 15.3779 5.82747 15.3022C5.86835 15.2116 5.90975 15.1172 5.95212 15.0216C8.2472 16.1162 11.0249 16.1872 13.4688 13.479Z" fill="#115D00"/>
</svg>