<svg xmlns="http://www.w3.org/2000/svg" width="21" height="21" viewBox="0 0 21 21" fill="none">
<path d="M2 2L19.5135 19.5135" stroke="#BEBEBE" stroke-width="2.17205" stroke-linecap="round" stroke-linejoin="round"/>
<path d="M6.12686 6.13539C3.45782 7.95038 2 10.7567 2 10.7567C2 10.7567 5.18427 16.8864 10.7568 16.8864C12.5522 16.8864 14.0996 16.2501 15.3725 15.3876M9.88108 4.67793C10.166 4.64458 10.458 4.62695 10.7568 4.62695C16.3292 4.62695 19.5135 10.7567 19.5135 10.7567C19.5135 10.7567 18.9077 11.9228 17.7622 13.2379" stroke="#BEBEBE" stroke-width="2.17205" stroke-linecap="round" stroke-linejoin="round"/>
<path d="M12.5092 12.7157C12.0444 13.1316 11.4308 13.3846 10.7579 13.3846C9.30698 13.3846 8.13086 12.2085 8.13086 10.7576C8.13086 10.0363 8.42152 9.38292 8.8921 8.9082" stroke="#BEBEBE" stroke-width="2.17205" stroke-linecap="round" stroke-linejoin="round"/>
</svg>