<svg width="24" height="24" viewBox="0 0 24 24" fill="none" xmlns="http://www.w3.org/2000/svg">
<path d="M3 3L20.5135 20.5135" stroke="#D74949" stroke-width="2.17205" stroke-linecap="round" stroke-linejoin="round"/>
<path d="M7.12686 7.13539C4.45782 8.95038 3 11.7567 3 11.7567C3 11.7567 6.18427 17.8864 11.7568 17.8864C13.5522 17.8864 15.0996 17.2501 16.3725 16.3876M10.8811 5.67793C11.166 5.64458 11.458 5.62695 11.7568 5.62695C17.3292 5.62695 20.5135 11.7567 20.5135 11.7567C20.5135 11.7567 19.9077 12.9228 18.7622 14.2379" stroke="#D74949" stroke-width="2.17205" stroke-linecap="round" stroke-linejoin="round"/>
<path d="M13.5092 13.7157C13.0444 14.1316 12.4308 14.3846 11.7579 14.3846C10.307 14.3846 9.13086 13.2085 9.13086 11.7576C9.13086 11.0363 9.42152 10.3829 9.8921 9.9082" stroke="#D74949" stroke-width="2.17205" stroke-linecap="round" stroke-linejoin="round"/>
</svg>
