<svg width="21" height="15" viewBox="0 0 21 15" fill="none" xmlns="http://www.w3.org/2000/svg">
<path d="M20.0862 6.57372C19.4394 5.45187 15.8818 -0.177611 9.83792 0.00431164C4.24887 0.145807 1.0147 5.05771 0.135405 6.57372C0.0466998 6.72737 0 6.90165 0 7.07906C0 7.25648 0.0466998 7.43076 0.135405 7.5844C0.772133 8.68604 4.17812 14.1538 10.131 14.1538H10.3837C15.9727 14.0123 19.217 9.10042 20.0862 7.5844C20.1749 7.43076 20.2216 7.25648 20.2216 7.07906C20.2216 6.90165 20.1749 6.72737 20.0862 6.57372ZM10.3332 12.1325C5.97713 12.2335 3.13712 8.50412 2.24772 7.07906C3.2584 5.45187 5.89628 2.12674 9.93899 2.02567C14.2748 1.91449 17.1249 5.65401 18.0244 7.07906C16.9834 8.70626 14.3759 12.0314 10.3332 12.1325Z" fill="#D74949"/>
<path d="M10.1116 3.54199C9.41197 3.54199 8.72805 3.74946 8.14634 4.13815C7.56462 4.52684 7.11122 5.0793 6.84349 5.72567C6.57575 6.37204 6.5057 7.08329 6.64219 7.76948C6.77868 8.45566 7.11558 9.08596 7.61029 9.58067C8.10501 10.0754 8.73531 10.4123 9.42149 10.5488C10.1077 10.6853 10.8189 10.6152 11.4653 10.3475C12.1117 10.0797 12.6641 9.62635 13.0528 9.04463C13.4415 8.46291 13.649 7.779 13.649 7.07937C13.649 6.1412 13.2763 5.24145 12.6129 4.57807C11.9495 3.91468 11.0498 3.54199 10.1116 3.54199ZM10.1116 8.59539C9.81176 8.59539 9.51865 8.50647 9.26934 8.33989C9.02003 8.17331 8.82572 7.93654 8.71098 7.65952C8.59623 7.38251 8.56621 7.07769 8.62471 6.78361C8.6832 6.48953 8.82759 6.2194 9.03961 6.00738C9.25163 5.79536 9.52176 5.65098 9.81584 5.59248C10.1099 5.53398 10.4147 5.56401 10.6918 5.67875C10.9688 5.79349 11.2055 5.98781 11.3721 6.23711C11.5387 6.48642 11.6276 6.77953 11.6276 7.07937C11.6276 7.48144 11.4679 7.86705 11.1836 8.15136C10.8993 8.43566 10.5137 8.59539 10.1116 8.59539Z" fill="#D74949"/>
</svg>
