<svg xmlns="http://www.w3.org/2000/svg" width="20" height="20" viewBox="0 0 20 20" fill="none">
  <path fill-rule="evenodd" clip-rule="evenodd" d="M19.3211 10.2538C19.3211 10.2538 19.1466 10.6465 18.7906 11.2119C18.7906 11.2119 18.0892 12.326 17.1607 13.2544C17.1607 13.2544 14.1651 16.25 10 16.25C10 16.25 5.83487 16.25 2.83931 13.2544C2.83931 13.2544 1.91082 12.3259 1.20939 11.2119C1.20939 11.2119 0.853387 10.6465 0.678868 10.2538C0.607044 10.0922 0.607044 9.90777 0.678868 9.74616C0.678868 9.74616 0.853387 9.3535 1.20939 8.78809C1.20939 8.78809 1.91081 7.67405 2.83931 6.74556C2.83931 6.74556 5.83487 3.75 10 3.75C10 3.75 14.1651 3.75 17.1607 6.74556C17.1607 6.74556 18.0892 7.67405 18.7906 8.78809C18.7906 8.78809 19.1466 9.35349 19.3211 9.74616C19.393 9.90777 19.393 10.0922 19.3211 10.2538ZM17.7328 10.5459C17.7328 10.5459 17.9271 10.2374 18.0537 10C18.0537 10 17.9271 9.7626 17.7328 9.4541C17.7328 9.4541 17.1061 8.45875 16.2768 7.62944C16.2768 7.62944 13.6474 5 10 5C10 5 6.35263 5 3.72319 7.62944C3.72319 7.62944 2.89388 8.45876 2.26718 9.4541C2.26718 9.4541 2.07294 9.76259 1.94632 10C1.94632 10 2.07294 10.2374 2.26718 10.5459C2.26718 10.5459 2.89388 11.5412 3.72319 12.3706C3.72319 12.3706 6.35263 15 10 15C10 15 13.6474 15 16.2768 12.3706C16.2768 12.3706 17.1061 11.5412 17.7328 10.5459Z" fill="#808080"/>
  <path fill-rule="evenodd" clip-rule="evenodd" d="M10 6.25C10 6.25 11.5533 6.25 12.6516 7.34835C12.6516 7.34835 13.75 8.4467 13.75 10C13.75 10 13.75 11.5533 12.6516 12.6517C12.6516 12.6517 11.5533 13.75 10 13.75C10 13.75 8.4467 13.75 7.34835 12.6517C7.34835 12.6517 6.25 11.5533 6.25 10C6.25 10 6.25 8.4467 7.34835 7.34835C7.34835 7.34835 8.4467 6.25 10 6.25ZM10 7.5C10 7.5 8.96447 7.5 8.23223 8.23223C8.23223 8.23223 7.5 8.96447 7.5 10C7.5 10 7.5 11.0355 8.23223 11.7678C8.23223 11.7678 8.96447 12.5 10 12.5C10 12.5 11.0355 12.5 11.7678 11.7678C11.7678 11.7678 12.5 11.0355 12.5 10C12.5 10 12.5 8.96447 11.7678 8.23223C11.7678 8.23223 11.0355 7.5 10 7.5Z" fill="#808080"/>
</svg>