<svg width="24" height="24" viewBox="0 0 24 24" fill="none" xmlns="http://www.w3.org/2000/svg">
<path fill-rule="evenodd" clip-rule="evenodd" d="M9.83824 18.4453C10.0106 18.7685 10.1833 19.0596 10.3483 19.3175C8.59805 18.9242 7.07927 17.9189 6.02838 16.5383C6.72188 16.1477 7.61014 15.7429 8.67799 15.4467C8.98143 16.6363 9.4094 17.6412 9.83824 18.4453ZM11.1618 17.7394C10.7893 17.041 10.4159 16.1688 10.1468 15.1355C10.726 15.0496 11.3443 15 12.0001 15C12.656 15 13.2745 15.0496 13.8539 15.1356C13.5847 16.1701 13.2111 17.0432 12.8382 17.7422C12.5399 18.3017 12.2425 18.7486 12.001 19.0757C11.7592 18.7483 11.461 18.3005 11.1618 17.7394ZM9.75 11.9986C9.75 12.5832 9.78937 13.138 9.85878 13.6619C10.527 13.5593 11.2414 13.5 12.0001 13.5C12.7588 13.5 13.4733 13.5594 14.1416 13.6619C14.2108 13.1389 14.25 12.585 14.25 12.0014C14.25 11.4168 14.2106 10.862 14.1412 10.3382C13.473 10.4407 12.7586 10.5 12.0001 10.5C11.2413 10.5 10.5267 10.4406 9.85842 10.3381C9.78923 10.8611 9.75 11.415 9.75 11.9986ZM8.38669 10.0288C8.2997 10.6474 8.25 11.3045 8.25 11.9986C8.25 12.6937 8.29984 13.3517 8.38707 13.9711C7.11348 14.3131 6.05886 14.7952 5.24324 15.2591C4.76698 14.2736 4.5 13.168 4.5 12C4.5 10.832 4.76697 9.72644 5.24323 8.74088C6.05868 9.2047 7.1132 9.68681 8.38669 10.0288ZM10.1461 8.8644C10.7255 8.9504 11.344 9 12.0001 9C12.6558 9 13.274 8.95045 13.8532 8.86452C13.5841 7.83118 13.2107 6.95901 12.8382 6.26059C12.539 5.69954 12.2408 5.25168 11.999 4.92432C11.7575 5.25144 11.4601 5.69834 11.1618 6.25779C10.7889 6.95682 10.4153 7.8299 10.1461 8.8644ZM15.6129 10.0289C15.7002 10.6483 15.75 11.3063 15.75 12.0014C15.75 12.6954 15.7003 13.3526 15.6133 13.9712C16.8867 14.3131 17.9412 14.7952 18.7568 15.2591C19.233 14.2735 19.5 13.1679 19.5 12C19.5 10.8321 19.233 9.72647 18.7568 8.74093C17.9413 9.20479 16.8866 9.68695 15.6129 10.0289ZM17.9716 7.46178C17.2781 7.85235 16.3898 8.25713 15.322 8.55338C15.0186 7.3637 14.5906 6.35879 14.1618 5.55471C13.9894 5.23148 13.8167 4.94042 13.6517 4.68247C15.402 5.07584 16.9208 6.08108 17.9716 7.46178ZM8.67732 8.55316C7.60983 8.25693 6.72183 7.85223 6.02839 7.46173C7.07886 6.08161 8.59685 5.07663 10.3462 4.68294C10.1818 4.94008 10.0099 5.23005 9.83823 5.55191C9.40908 6.35658 8.98081 7.36236 8.67732 8.55316ZM15.3227 15.4468C15.0192 16.6376 14.5909 17.6434 14.1618 18.4481C13.9901 18.77 13.8182 19.0599 13.6538 19.3171C15.4032 18.9234 16.9212 17.9184 17.9717 16.5382C17.2783 16.1478 16.3903 15.7431 15.3227 15.4468ZM12 21C16.9706 21 21 16.9706 21 12C21 7.02944 16.9706 3 12 3C7.02944 3 3 7.02944 3 12C3 16.9706 7.02944 21 12 21Z" fill="#333333"/>
</svg>
