<svg width="160" height="46" viewBox="0 0 160 46" fill="none" xmlns="http://www.w3.org/2000/svg">
<g clip-path="url(#clip0_5294_53747)">
<path d="M22.5625 9H32.6923L45.1091 24.6733L32.9178 41.3893H22.5625L34.9792 25.1946L22.5625 9Z" fill="#F8C088"/>
<path d="M38.168 9H48.2978L60.7145 24.6733L48.5233 41.3893H38.168L50.5847 25.1946L38.168 9Z" fill="#F8C088"/>
<path d="M21.4192 10.8408L0 38.5053L6.49019 45.9998L16.2979 33.194L22.5627 41.389L27.1847 35.3446L21.1938 26.286L27.1847 18.9055L21.4192 10.8408Z" fill="#87694F"/>
<path d="M73.1472 28.8438H69.8457V13.9851H73.1472V28.8438ZM76.6097 24.4285H71.0213V21.4633H76.7385C77.4954 21.4633 78.0269 21.3004 78.3168 21.0071C78.6067 20.7139 78.7516 20.1111 78.7516 19.215C78.7516 18.3189 78.6067 17.7161 78.3168 17.4228C78.0269 17.1296 77.4954 16.9829 76.7385 16.9829H71.0213V13.9851H76.6097C77.5784 13.9701 78.5375 14.182 79.4119 14.6042C80.2076 15.003 80.873 15.6252 81.3283 16.3964C81.8073 17.2551 82.0467 18.2293 82.0208 19.215C82.0448 20.2056 81.8057 21.1846 81.3283 22.0499C80.872 22.8162 80.2065 23.4329 79.4119 23.8257C78.5362 24.2424 77.5772 24.4487 76.6097 24.4285Z" fill="#0A2B54"/>
<path d="M86.6584 28.844H83.373V13.9854H90.1209C91.2965 13.9854 92.2789 14.1646 93.0842 14.523C93.8427 14.8283 94.4896 15.3631 94.9362 16.0545C95.3841 16.7932 95.6081 17.6485 95.5804 18.5146C95.5998 19.226 95.4623 19.9329 95.1778 20.5838C94.9302 21.1589 94.5069 21.6386 93.9699 21.9523C93.3287 22.3221 92.6128 22.5394 91.8763 22.5877V22.8158C92.4375 22.9648 92.949 23.263 93.3579 23.6793C93.756 24.1 94.0825 24.5845 94.3242 25.113L96.1924 28.844H92.3595L90.6202 25.4063C90.4384 25.0338 90.2228 24.6793 89.976 24.3473C89.7775 24.0894 89.5169 23.8874 89.219 23.7608C88.8219 23.6156 88.4009 23.5492 87.979 23.5653H86.6584V28.844ZM86.6584 16.9831V20.8119H90.2819C91.055 20.8119 91.5864 20.6815 91.8763 20.3883C92.1662 20.095 92.3111 19.6062 92.3111 18.8894C92.3111 18.1725 92.1662 17.6837 91.8763 17.4068C91.5864 17.1298 91.055 16.9831 90.2819 16.9831H86.6584Z" fill="#0A2B54"/>
<path d="M103.812 29.0557C102.352 29.0557 101.095 28.7461 100.043 28.127C98.9946 27.4925 98.15 26.5645 97.6114 25.4551C97.0477 24.3146 96.7578 22.9623 96.7578 21.4146C96.7578 19.8668 97.0477 18.5145 97.6114 17.3741C98.15 16.2646 98.9946 15.3366 100.043 14.7021C101.095 14.083 102.352 13.7734 103.812 13.7734C105.272 13.7734 106.528 14.083 107.58 14.7021C108.636 15.3276 109.483 16.258 110.012 17.3741C110.576 18.5145 110.849 19.8668 110.849 21.4146C110.849 22.9623 110.576 24.3146 110.012 25.4551C109.483 26.5711 108.636 27.5016 107.58 28.127C106.539 28.7461 105.283 29.0557 103.812 29.0557ZM103.812 25.8461C104.649 25.8461 105.326 25.7158 105.841 25.4551C106.356 25.2107 106.743 24.7545 106.984 24.1028C107.226 23.4511 107.355 22.5713 107.355 21.4146C107.355 20.2578 107.226 19.3454 106.984 18.71C106.787 18.1327 106.377 17.6543 105.841 17.3741C105.326 17.1134 104.649 16.983 103.812 16.983C102.974 16.983 102.282 17.1134 101.766 17.3741C101.23 17.6543 100.82 18.1327 100.623 18.71C100.397 19.3454 100.269 20.2415 100.269 21.4146C100.269 22.5876 100.397 23.4674 100.623 24.1028C100.848 24.7382 101.251 25.2107 101.766 25.4551C102.282 25.6995 102.974 25.8461 103.812 25.8461Z" fill="#0A2B54"/>
<path d="M115.696 28.844H112.41V13.9854H115.696V28.844ZM118.015 28.844H113.312V25.8462H117.966C118.965 25.8462 119.754 25.7322 120.366 25.4878C120.662 25.3671 120.931 25.1863 121.155 24.9565C121.379 24.7268 121.555 24.4529 121.67 24.1518C121.96 23.5164 122.089 22.604 122.089 21.4147C122.089 20.2253 121.96 19.313 121.67 18.6776C121.552 18.3779 121.376 18.1053 121.152 17.8758C120.928 17.6463 120.661 17.4647 120.366 17.3416C119.754 17.0972 118.965 16.9831 117.966 16.9831H113.312V13.9854H118.015C119.593 13.9854 120.946 14.2786 122.089 14.8814C123.192 15.4438 124.101 16.3296 124.698 17.423C125.31 18.5309 125.616 19.8669 125.616 21.4147C125.616 22.9625 125.31 24.2984 124.698 25.4063C124.101 26.4998 123.192 27.3856 122.089 27.9479C120.946 28.5507 119.593 28.844 118.015 28.844Z" fill="#0A2B54"/>
<path d="M130.383 28.844H127.082V13.9854H130.383V28.844Z" fill="#0A2B54"/>
<path d="M138.387 29.0557C136.986 29.0557 135.81 28.7624 134.844 28.1433C133.867 27.5039 133.099 26.5853 132.638 25.504C132.139 24.3635 131.881 22.9949 131.881 21.4146C131.881 19.8342 132.171 18.5145 132.734 17.3741C133.28 16.2591 134.137 15.3302 135.198 14.7021C136.261 14.083 137.534 13.7734 139.031 13.7734C140.529 13.7734 141.721 14.0015 142.719 14.4577C143.646 14.8759 144.431 15.5617 144.974 16.4291C145.495 17.3504 145.757 18.3984 145.731 19.4595V19.5735H142.252V19.4921C142.252 18.5471 142.011 17.8954 141.511 17.5207C141.012 17.146 140.159 16.983 138.967 16.983C138.267 16.9599 137.569 17.0876 136.922 17.3578C136.406 17.6021 136.02 18.0583 135.762 18.6937C135.504 19.3291 135.392 20.2415 135.392 21.4146C135.392 22.5876 135.521 23.5163 135.794 24.168C135.902 24.4651 136.068 24.7376 136.28 24.9697C136.493 25.2018 136.75 25.389 137.034 25.5202C137.598 25.7646 138.355 25.895 139.273 25.895C139.911 25.9054 140.548 25.8453 141.173 25.7158C141.605 25.6317 141.993 25.3949 142.268 25.0478C142.51 24.7219 142.623 24.2657 142.623 23.6466V22.6528H145.779V22.9949L142.977 26.5792H142.607C142.436 27.0023 142.197 27.3934 141.898 27.736C141.519 28.1451 141.058 28.4673 140.545 28.681C139.965 28.9416 139.257 29.0557 138.387 29.0557ZM145.779 23.7281H138.613V20.9421H145.779V23.7281ZM145.779 28.8439H142.735V24.836L142.623 24.559V21.3494H145.779V28.8439Z" fill="#0A2B54"/>
<path d="M154.107 23.7608H151.176L145.281 13.9854H149.001L151.304 17.8955L152.577 20.0787H152.786L154.042 17.8955L156.345 13.9854H160.001L154.107 23.7608ZM154.284 28.844H150.998V21.6102H154.284V28.844Z" fill="#0A2B54"/>
<path d="M70.4099 36.3383H70.0234V32.7051H70.571L71.5856 34.9534L71.9077 35.7355H71.9238L72.2459 34.9534L73.2605 32.7051H73.7919V36.3383H73.4215V33.3079H73.4054L73.1639 33.8293L72.1332 36.1102H71.6822L70.6515 33.8293L70.4261 33.3079H70.3938V36.3383H70.4099Z" fill="#1A5458"/>
<path d="M77.1897 36.3383H76.7871L78.2365 32.7051H78.7841L80.2335 36.3383H79.8148L78.7197 33.6175L78.5103 33.0798H78.4942L78.2687 33.6175L77.1897 36.3383ZM79.5732 35.2793H77.4313V34.9208H79.5732V35.2793Z" fill="#1A5458"/>
<path d="M83.5989 36.3384H83.2285V32.7052H84.6779C84.8993 32.7025 85.1188 32.7469 85.3221 32.8355C85.5022 32.9032 85.6551 33.0292 85.757 33.194C85.8697 33.3616 85.9262 33.5616 85.918 33.7642C85.9214 33.9516 85.877 34.1368 85.7892 34.3019C85.7031 34.4515 85.5739 34.5709 85.4187 34.644C85.2414 34.7253 85.0497 34.7696 84.8551 34.7743V34.8069C84.9604 34.8358 85.0589 34.8857 85.145 34.9535C85.2274 35.0414 85.2978 35.14 85.3543 35.2468L85.9663 36.3384H85.5315L84.9356 35.312C84.8859 35.2189 84.8265 35.1316 84.7585 35.0513C84.6843 34.9838 84.5963 34.9337 84.5008 34.9047C84.3752 34.8681 84.2448 34.8517 84.1143 34.8558H83.5989V36.3384ZM83.5989 33.0636V34.5299H84.7424C84.956 34.5465 85.1682 34.4827 85.3382 34.3507C85.4729 34.1984 85.5474 34.0012 85.5474 33.7968C85.5474 33.5924 85.4729 33.3952 85.3382 33.2428C85.1682 33.1109 84.956 33.0471 84.7424 33.0636H83.5989Z" fill="#1A5458"/>
<path d="M89.3977 36.3383H89.0273V32.7051H89.3977V36.3383Z" fill="#1A5458"/>
<path d="M93.1502 36.3383H92.7637V32.7051H93.1824L94.7929 35.1164L95.1633 35.6866H95.1955V32.7051H95.582V36.3383H95.1633L93.5528 33.927L93.1663 33.3731H93.1502V36.3383Z" fill="#1A5458"/>
<path d="M99.3182 36.3383H98.9316V32.7051H99.3182V36.3383ZM101.347 33.0635H99.0605V32.7051H101.347V33.0635ZM101.267 34.6927H99.0605V34.3343H101.267V34.6927ZM101.347 36.3383H99.0605V35.9798H101.347V36.3383Z" fill="#1A5458"/>
<path d="M109.576 36.3871C109.298 36.4019 109.021 36.3459 108.771 36.2242C108.574 36.1374 108.41 35.9888 108.304 35.8006C108.195 35.637 108.139 35.4436 108.143 35.2466V35.1489H108.529V35.214C108.525 35.3613 108.558 35.5071 108.626 35.6376C108.697 35.7701 108.81 35.8737 108.948 35.9309C109.155 36.0038 109.373 36.037 109.592 36.0286C109.819 36.0503 110.046 35.9928 110.236 35.8657C110.308 35.8148 110.364 35.7459 110.401 35.6659C110.438 35.5858 110.453 35.4975 110.446 35.4095C110.452 35.2971 110.43 35.1848 110.381 35.0837C110.335 34.9867 110.255 34.911 110.156 34.8719L109.737 34.7253L109.109 34.5949C108.934 34.565 108.765 34.5044 108.61 34.4157C108.477 34.3437 108.366 34.2368 108.288 34.1061C108.198 33.9658 108.153 33.8008 108.159 33.6337C108.157 33.4597 108.208 33.2893 108.304 33.1449C108.415 32.9887 108.565 32.8651 108.739 32.7865C108.964 32.6953 109.205 32.6509 109.447 32.6561C109.709 32.6432 109.97 32.6993 110.204 32.819C110.387 32.9221 110.537 33.0744 110.639 33.2589C110.734 33.4278 110.784 33.6187 110.784 33.8129V33.8943H110.397V33.8292C110.399 33.6769 110.366 33.5263 110.301 33.3893C110.236 33.2623 110.127 33.1638 109.995 33.1123C109.816 33.0399 109.624 33.0066 109.431 33.0146C109.202 32.9998 108.973 33.0506 108.771 33.1612C108.701 33.2095 108.645 33.2756 108.608 33.3528C108.571 33.43 108.555 33.5156 108.561 33.6011C108.553 33.7189 108.575 33.8369 108.626 33.9432C108.682 34.024 108.76 34.0863 108.851 34.1224L109.27 34.2691L109.882 34.4157C110.063 34.4431 110.238 34.5038 110.397 34.5949C110.53 34.6669 110.642 34.7738 110.719 34.9045C110.802 35.0535 110.841 35.2229 110.832 35.3932C110.83 35.5696 110.785 35.7427 110.703 35.8983C110.592 36.0545 110.442 36.1781 110.269 36.2567C110.049 36.3484 109.813 36.3928 109.576 36.3871Z" fill="#1A5458"/>
<path d="M115.503 36.3874C115.199 36.3889 114.899 36.3103 114.634 36.1593C114.39 35.9994 114.194 35.7737 114.07 35.5076C113.922 35.2042 113.85 34.8684 113.861 34.53C113.848 34.1864 113.92 33.8449 114.07 33.5362C114.194 33.2701 114.39 33.0444 114.634 32.8845C114.899 32.7334 115.199 32.6548 115.503 32.6564C115.803 32.6522 116.098 32.7311 116.357 32.8845C116.601 33.0444 116.796 33.2701 116.921 33.5362C117.07 33.8449 117.142 34.1864 117.13 34.53C117.141 34.8684 117.069 35.2042 116.921 35.5076C116.796 35.7737 116.601 35.9994 116.357 36.1593C116.098 36.3127 115.803 36.3916 115.503 36.3874ZM115.503 35.9963C115.743 36.0054 115.98 35.9551 116.196 35.8497C116.374 35.7341 116.51 35.5623 116.582 35.3609C116.686 35.0967 116.735 34.8141 116.727 34.53C116.736 34.2406 116.687 33.9524 116.582 33.6828C116.51 33.4815 116.374 33.3097 116.196 33.1941C115.982 33.0831 115.744 33.0271 115.503 33.0311C115.263 33.025 115.024 33.0811 114.811 33.1941C114.624 33.308 114.477 33.4791 114.392 33.6828C114.302 33.9557 114.258 34.2422 114.263 34.53C114.259 34.8124 114.303 35.0934 114.392 35.3609C114.477 35.5647 114.624 35.7358 114.811 35.8497C115.026 35.9564 115.264 36.0068 115.503 35.9963Z" fill="#1A5458"/>
<path d="M120.673 36.3383H120.303V32.7051H120.673V36.3383ZM122.638 36.3383H120.415V35.9798H122.638V36.3383Z" fill="#1A5458"/>
<path d="M127.131 36.3872C126.857 36.3916 126.587 36.3302 126.341 36.2079C126.122 36.0971 125.942 35.9208 125.826 35.7029C125.703 35.4554 125.643 35.1813 125.649 34.9045V32.7051H126.035V34.9045C126.025 35.1223 126.063 35.3396 126.148 35.54C126.178 35.6203 126.225 35.6927 126.287 35.752C126.348 35.8112 126.422 35.8557 126.502 35.8821C126.908 36.0344 127.353 36.0344 127.759 35.8821C127.838 35.8528 127.91 35.8073 127.971 35.7484C128.032 35.6896 128.08 35.6186 128.113 35.54C128.198 35.3396 128.236 35.1223 128.226 34.9045V32.7051H128.612V34.9045C128.618 35.1813 128.558 35.4554 128.435 35.7029C128.319 35.9208 128.139 36.0971 127.92 36.2079C127.674 36.3302 127.404 36.3916 127.131 36.3872Z" fill="#1A5458"/>
<path d="M134.538 33.0635H131.623V32.7051H134.538V33.0635ZM133.266 36.3383H132.895V32.7051H133.266V36.3383Z" fill="#1A5458"/>
<path d="M137.921 36.3383H137.551V32.7051H137.921V36.3383Z" fill="#1A5458"/>
<path d="M142.735 36.387C142.435 36.3912 142.14 36.3123 141.881 36.1589C141.629 36.0042 141.427 35.7775 141.302 35.5072C141.163 35.1974 141.092 34.8614 141.092 34.5215C141.092 34.1816 141.163 33.8456 141.302 33.5359C141.427 33.2656 141.629 33.0388 141.881 32.8842C142.141 32.7342 142.436 32.6553 142.735 32.6553C143.034 32.6553 143.328 32.7342 143.588 32.8842C143.833 33.0441 144.028 33.2698 144.152 33.5359C144.302 33.8446 144.374 34.186 144.361 34.5297C144.372 34.868 144.301 35.2038 144.152 35.5072C144.028 35.7733 143.833 35.999 143.588 36.1589C143.33 36.3123 143.035 36.3912 142.735 36.387ZM142.735 35.996C142.974 36.0064 143.212 35.956 143.427 35.8494C143.606 35.7298 143.746 35.5598 143.83 35.3606C143.919 35.0931 143.963 34.8121 143.959 34.5297C143.964 34.2419 143.921 33.9553 143.83 33.6825C143.746 33.4832 143.606 33.3133 143.427 33.1937C143.214 33.0808 142.976 33.0247 142.735 33.0308C142.494 33.0268 142.257 33.0827 142.042 33.1937C141.855 33.3076 141.709 33.4788 141.624 33.6825C141.533 33.9553 141.489 34.2419 141.495 34.5297C141.491 34.8121 141.534 35.0931 141.624 35.3606C141.709 35.5643 141.855 35.7355 142.042 35.8494C142.258 35.9547 142.496 36.0051 142.735 35.996Z" fill="#1A5458"/>
<path d="M147.922 36.3383H147.535V32.7051H147.954L149.548 35.1164L149.935 35.6866H149.967V32.7051H150.353V36.3383H149.935L148.324 33.927L147.938 33.3731H147.922V36.3383Z" fill="#1A5458"/>
<path d="M154.992 36.3871C154.714 36.3999 154.438 36.3439 154.187 36.2242C153.99 36.1374 153.826 35.9888 153.72 35.8006C153.618 35.6339 153.562 35.4425 153.559 35.2466V35.1489H153.945V35.214C153.941 35.3613 153.974 35.5071 154.042 35.6376C154.116 35.767 154.229 35.8696 154.364 35.9309C154.571 36.0038 154.789 36.037 155.008 36.0286C155.235 36.0503 155.462 35.9928 155.652 35.8657C155.726 35.8168 155.786 35.7487 155.826 35.6685C155.866 35.5884 155.883 35.499 155.878 35.4095C155.88 35.2956 155.852 35.183 155.797 35.0837C155.778 35.0362 155.749 34.993 155.713 34.9567C155.677 34.9204 155.635 34.8915 155.588 34.8719L155.153 34.7253L154.525 34.5949C154.354 34.5652 154.191 34.5044 154.042 34.4157C153.901 34.3493 153.783 34.2414 153.704 34.1061C153.619 33.9639 153.58 33.7991 153.591 33.6337C153.589 33.4597 153.64 33.2893 153.736 33.1449C153.841 32.9893 153.985 32.8655 154.154 32.7865C154.38 32.6953 154.621 32.6509 154.863 32.6561C155.125 32.6432 155.386 32.6993 155.62 32.819C155.802 32.9221 155.953 33.0744 156.055 33.2589C156.15 33.4278 156.2 33.6187 156.2 33.8129V33.8943H155.813V33.8292C155.815 33.6769 155.782 33.5263 155.717 33.3893C155.659 33.2624 155.555 33.1631 155.427 33.1123C155.247 33.0413 155.056 33.0081 154.863 33.0146C154.629 32.9993 154.394 33.05 154.187 33.1612C154.117 33.2095 154.061 33.2756 154.024 33.3528C153.987 33.43 153.971 33.5156 153.977 33.6011C153.968 33.7189 153.991 33.8369 154.042 33.9432C154.098 34.024 154.176 34.0863 154.267 34.1224L154.702 34.2691L155.298 34.4157C155.48 34.4403 155.655 34.5012 155.813 34.5949C155.949 34.6623 156.062 34.7704 156.135 34.9045C156.217 35.0535 156.256 35.2229 156.248 35.3932C156.253 35.5705 156.208 35.7455 156.119 35.8983C156.01 36.0504 155.867 36.1734 155.701 36.2567C155.475 36.3467 155.234 36.391 154.992 36.3871Z" fill="#1A5458"/>
</g>
<defs>
<clipPath id="clip0_5294_53747">
<rect width="160" height="46" fill="white"/>
</clipPath>
</defs>
</svg>
