<svg width="14" height="14" viewBox="0 0 14 14" fill="none" xmlns="http://www.w3.org/2000/svg">
<path d="M3.32307 8.98202L1.79917 7.45814H6.54187V12.2008L5.018 10.677L4.35338 11.3415L7.01182 14L9.67027 11.3415L9.00564 10.677L7.48177 12.2008V7.45814H12.2009L10.677 8.98202L11.3416 9.64661L14 6.98819L11.3416 4.32974L10.677 4.99434L12.2009 6.51824H7.48177V1.79918L9.00564 3.32302L9.67027 2.65845L7.01182 0L4.35338 2.65845L5.018 3.32302L6.54187 1.79918V6.51824H1.79917L3.32307 4.99434L2.65845 4.32974L0 6.98819L2.65847 9.64664L3.32307 8.98202Z" fill="#808080"/>
</svg>
